<?xml version="1.0" standalone="no"?>
<!DOCTYPE svg PUBLIC "-//W3C//DTD SVG 1.1//EN" "http://www.w3.org/Graphics/SVG/1.1/DTD/svg11.dtd" >
<svg xmlns="http://www.w3.org/2000/svg" xmlns:xlink="http://www.w3.org/1999/xlink" version="1.1">
<metadata>
Created by FontForge 20201107 at Fri Jan  1 02:30:17 1904
 By 
Satsuyako
</metadata>
<defs>
<font id="EmojiFont" horiz-adv-x="512" >
  <font-face 
    font-family="EmojiFont"
    font-weight="400"
    font-stretch="normal"
    units-per-em="1024"
    panose-1="2 11 6 0 0 0 0 0 0 0"
    ascent="768"
    descent="-256"
    x-height="576"
    cap-height="768"
    bbox="-64 -256 960 768"
    underline-thickness="48"
    underline-position="-120"
    unicode-range="U+0020-2219"
  />
<missing-glyph 
d="M201 313v110h110v-110h-110z" />
    <glyph glyph-name=".notdef" 
d="M201 313v110h110v-110h-110z" />
    <glyph glyph-name="glyph1" horiz-adv-x="0" 
 />
    <glyph glyph-name="nonmarkingreturn" horiz-adv-x="341" 
 />
    <glyph glyph-name="space" unicode=" " horiz-adv-x="320" 
 />
    <glyph glyph-name="exclam" unicode="!" 
 />
    <glyph glyph-name="quotedbl" unicode="&#x22;" 
 />
    <glyph glyph-name="numbersign" unicode="#" 
 />
    <glyph glyph-name="dollar" unicode="$" 
 />
    <glyph glyph-name="percent" unicode="%" 
 />
    <glyph glyph-name="ampersand" unicode="&#x26;" 
 />
    <glyph glyph-name="quotesingle" unicode="'" 
 />
    <glyph glyph-name="parenleft" unicode="(" 
 />
    <glyph glyph-name="parenright" unicode=")" 
 />
    <glyph glyph-name="asterisk" unicode="*" 
 />
    <glyph glyph-name="plus" unicode="+" 
 />
    <glyph glyph-name="comma" unicode="," 
 />
    <glyph glyph-name="hyphen" unicode="-" 
 />
    <glyph glyph-name="period" unicode="." 
 />
    <glyph glyph-name="slash" unicode="/" 
 />
    <glyph glyph-name="zero" unicode="0" 
 />
    <glyph glyph-name="one" unicode="1" 
 />
    <glyph glyph-name="two" unicode="2" 
 />
    <glyph glyph-name="three" unicode="3" 
 />
    <glyph glyph-name="four" unicode="4" 
 />
    <glyph glyph-name="five" unicode="5" 
 />
    <glyph glyph-name="six" unicode="6" 
 />
    <glyph glyph-name="seven" unicode="7" 
 />
    <glyph glyph-name="eight" unicode="8" 
 />
    <glyph glyph-name="nine" unicode="9" 
 />
    <glyph glyph-name="colon" unicode=":" 
 />
    <glyph glyph-name="semicolon" unicode=";" 
 />
    <glyph glyph-name="less" unicode="&#x3c;" 
 />
    <glyph glyph-name="equal" unicode="=" 
 />
    <glyph glyph-name="greater" unicode="&#x3e;" 
 />
    <glyph glyph-name="question" unicode="?" 
 />
    <glyph glyph-name="at" unicode="@" 
 />
    <glyph glyph-name="A" unicode="A" horiz-adv-x="1024" 
d="M640 64v64h-320v-64h-256v64h-64v320h64v64h256v-64h320v64h256v-64h64v-320h-64v-64h-256zM832 128v64h64v192h-64v64h-128v-64h-64v-64h128v-64h-128v-64h64v-64h128zM256 128v64h64v64h-128v64h128v64h-64v64h-128v-64h-64v-192h64v-64h128zM512 192v64h64v64h-64v64
h-64v-64h-64v-64h64v-64h64z" />
    <glyph glyph-name="B" unicode="B" horiz-adv-x="768" 
d="M320 320v128h-64v64h-128v-64h-64v-192h64v-64h64v-64h128v-64h64v64h128v64h64v64h64v192h-64v64h-128v-64h-64v-128h-64zM256 0v64h-128v64h-64v64h-64v320h64v64h256v-64h64v64h256v-64h64v-320h-64v-64h-64v-64h-128v-64h-192z" />
    <glyph glyph-name="C" unicode="C" horiz-adv-x="768" 
d="M256 0v64h-128v64h-64v128h-64v256h64v64h192v-64h64v-128h64v128h64v64h192v-64h64v-256h-64v-128h-64v-64h-128v-64h-192zM512 128v64h-64v-64h64zM576 256v64h64v64h-64v64h-64v-64h-64v-64h64v-64h64z" />
    <glyph glyph-name="D" unicode="D" horiz-adv-x="704" 
d="M512 0v64h64v-64h-64zM192 128v128h64v-128h-64zM448 384v-64h-128v64h128zM640 128v-64h-64v64h64zM448 64v64h64v-64h-64zM512 192h64v-64h-64v64zM256 320h64v-64h-64v64zM128 256v64h64v-64h-64zM0 320v64h128v-64h-128zM256 384v64h64v-64h-64zM128 448h64v-64h-64
v64zM192 576h64v-128h-64v128z" />
    <glyph glyph-name="E" unicode="E" horiz-adv-x="768" 
d="M448 192v128h64v-128h-64zM320 192v64h64v-64h-64zM192 192v128h64v-128h-64zM512 0h-320v64h320v-64zM512 128h64v-64h-64v64zM128 64v64h64v-64h-64zM576 384h-64v64h128v-320h-64v256zM64 128v320h128v-64h-64v-256h-64zM704 576v-128h-64v128h64zM256 576v-64h192v64
h64v-128h-320v128h64zM0 448v128h64v-128h-64zM512 640h128v-64h-128v64zM64 640h128v-64h-128v64z" />
    <glyph glyph-name="F" unicode="F" horiz-adv-x="768" 
d="M384 0v64h-64v-64h-256v320h-64v192h192v64h64v64h192v-64h64v-64h192v-192h-64v-320h-256zM576 64v192h-64v64h64v64h64v64h-192v64h-64v64h-64v-64h-64v-64h-192v-64h64v-64h64v-64h-64v-192h128v64h192v-64h128z" />
    <glyph glyph-name="G" unicode="G" horiz-adv-x="704" 
d="M384 64v64h-128v-64h-192v192h64v64h-64v64h-64v128h192v64h64v64h128v-64h64v-64h192v-128h-64v-64h-64v-64h64v-192h-192zM320 192v64h64v64h-64v64h-64v-64h-64v-64h64v-64h64zM192 384v64h-64v-64h64z" />
    <glyph glyph-name="H" unicode="H" horiz-adv-x="832" 
d="M128 0v64h-64v64h-64v192h64v64h128v-64h64v64h64v128h-64v192h256v-64h128v-64h64v-64h64v-192h-64v-64h-64v-64h-128v64h64v128h-64v64h-128v-128h64v-192h-64v-64h-64v-64h-192z" />
    <glyph glyph-name="I" unicode="I" horiz-adv-x="896" 
d="M512 -64v64h64v64h-192v-128h-128v64h64v64h-64v64h384v-192h-128zM640 320v-64h-128v64h128zM256 384v128h128v-128h-128zM640 192h64v-64h-64v64zM192 128v64h64v-64h-64zM704 256h64v-64h-64v64zM128 192v128h64v-128h-64zM768 384h-128v256h64v-192h128v-192h-64v128
zM448 320v64h64v-64h-64zM64 320v64h-64v64h64v64h64v-192h-64zM128 640h64v-128h-64v128zM576 640v64h64v-64h-64zM192 704h64v-64h-64v64zM256 768h320v-64h-320v64z" />
    <glyph glyph-name="J" unicode="J" horiz-adv-x="960" 
d="M64 -128v64h64v-64h-64zM256 -256h-320v256h64v-192h256v-64zM256 -128h64v-64h-64v64zM640 -128h-192v64h192v-64zM320 -64h-192v64h192v64h-64v128h64v-64h64v64h64v-64h128v-64h-192v-64h64v-64h-64v-64h-64v64zM640 0h64v-64h-64v64zM704 64h64v-64h-64v64zM0 320h64
v-256h64v-64h-128v320zM768 192h-128v-64h-64v64h64v256h64v-192h64v64h64v-256h-64v128zM320 384h64v-64h128v-64h-128v-64h-64v192zM192 192v192h-64v-64h-64v320h64v-192h128v-256h-64zM896 576v-256h-64v256h64zM576 384v-64h-64v64h64zM384 448h128v-64h-128v64z
M576 448v64h64v-64h-64zM256 512h64v-64h-64v64zM320 576h192v64h-64v64h320v-64h64v-64h-64v64h-192v-128h-256v64zM128 704h64v-64h-64v64zM192 768h256v-64h-256v64z" />
    <glyph glyph-name="K" unicode="K" horiz-adv-x="960" 
d="M320 128v64h64v-64h-64zM-64 -256v192h64v64h128v-64h-64v-64h64v64h192v-128h-64v-64h-320zM448 -128v64h-64v128h192v64h64v64h192v-192h-64v-64h-64v-64h-256zM704 256v192h-64v64h-64v192h192v-64h64v-64h64v-256h-64v-64h-128zM128 64h-128v256h64v64h128v-192h64
v-128h64v-64h-192v64zM448 128v64h-64v64h128v64h64v128h64v-256h-64v-64h-128zM320 448v64h256v-64h-192v-64h128v-64h-128v64h-64v-192h-64v256h64zM64 448v192h64v64h64v64h256v-64h64v-128h-192v-64h-64v-64h-192z" />
    <glyph glyph-name="L" unicode="L" horiz-adv-x="960" 
d="M640 0v64h64v-64h-64zM384 0v64h-64v64h64v64h64v-64h64v-64h-64v-64h-64zM768 64v64h-64v64h64v64h64v-64h64v-64h-64v-64h-64zM512 448v64h64v64h-320v-64h-64v64h-128v-128h64v64h64v-64h64v64h64v-64h192zM768 448v128h-128v-64h-64v-64h64v64h64v-64h64zM576 128
h-64v64h64v-64zM256 128v64h64v-64h-64zM576 256h64v-64h-64v64zM448 320h64v-128h-64v128zM384 320v-128h-64v128h64zM192 192v64h64v-64h-64zM640 320h64v-64h-64v64zM128 256v64h64v-64h-64zM704 384h-128v-64h-64v64h-192v-64h-64v64h-128v-64h-64v64h-64v256h832v-256
h-64v-64h-64v64z" />
    <glyph glyph-name="M" unicode="M" horiz-adv-x="768" 
d="M192 64v64h64v-64h-64zM192 192v64h64v-64h-64zM384 256v64h64v-64h-64zM0 256v64h64v-64h-64zM640 448v64h64v-64h-64zM512 448v64h64v-64h-64zM192 448v64h64v-64h-64zM320 320v-64h-64v64h64zM128 256v64h64v-64h-64zM192 384h64v-64h-64v64zM640 640h64v-64h-64v64z
M512 576v64h64v-64h-64zM640 512h-64v64h64v-64z" />
    <glyph glyph-name="N" unicode="N" horiz-adv-x="832" 
d="M512 64v64h64v-64h-64zM512 192v64h64v-64h-64zM704 256v64h64v-64h-64zM320 256v64h64v-64h-64zM512 448v64h64v-64h-64zM192 448v64h64v-64h-64zM64 448v64h64v-64h-64zM640 320v-64h-64v64h64zM448 256v64h64v-64h-64zM512 384h64v-64h-64v64zM192 640h64v-64h-64v64z
M64 576v64h64v-64h-64zM192 512h-64v64h64v-64z" />
    <glyph glyph-name="O" unicode="O" horiz-adv-x="896" 
d="M384 -192v64h-64v64h-64v64h-64v64h-64v64h-64v128h-64v256h64v-192h192v64h128v128h64v-128h128v-64h192v192h64v-256h-64v-128h-64v128h-128v-128h128v-64h-64v-64h-64v-64h-64v64h64v128h-64v-64h-64v-128h64v-64h-64v-64h-64zM384 256v64h-64v-128h64v-64h64v64h64
v128h-64v-64h-64zM384 -64v128h-64v64h-64v128h-128v-128h128v-128h64v-64h64zM576 512h64v-128h-64v128zM192 384v128h64v-128h-64zM640 576h-128v-64h-64v64h64v64h192v-64h64v-64h-128v64zM320 512v64h64v-64h-64zM64 576h64v64h192v-64h-128v-64h-128v64z" />
    <glyph glyph-name="P" unicode="P" horiz-adv-x="960" 
d="M384 -256v64h64v-64h-64zM576 -192v64h64v-64h-64zM192 -128v64h64v-64h-64zM704 -64v64h64v-64h-64zM128 0v64h64v-64h-64zM832 128v64h64v-64h-64zM512 -128v-64h-64v64h64zM320 -192v64h64v-64h-64zM384 -64h64v-64h-64v64zM832 64v-64h-64v64h64zM640 0v64h64v-64
h-64zM704 128h64v-64h-64v64zM256 128v-64h-64v64h64zM64 64v64h64v-64h-64zM128 192h64v-64h-64v64zM832 256h-128v64h128v-64zM512 256h-128v64h128v-64zM192 256h-128v64h128v-64zM896 448v-128h-64v128h64zM640 320v128h64v-128h-64zM576 448v-128h-64v128h64zM320 320
v128h64v-128h-64zM256 448v-128h-64v128h64zM0 320v128h64v-128h-64zM704 512h128v-64h-128v64zM384 512h128v-64h-128v64zM64 512h128v-64h-128v64z" />
    <glyph glyph-name="Q" unicode="Q" horiz-adv-x="832" 
d="M192 448v64h-64v-64h-64v128h-64v64h128v64h64v-64h128v-64h-64v-128h-64zM384 64v128h-64v192h128v64h192v-64h128v-192h-64v-128h-320zM640 128v128h64v64h-128v64h-64v-64h-128v-64h64v-128h64v64h64v-64h64z" />
    <glyph glyph-name="R" unicode="R" 
d="M128 0v64h-64v64h-64v128h64v64h64v-64h64v64h64v-64h64v-128h-64v-64h-64v-64h-64zM320 384v64h-64v128h64v-64h64v64h64v-128h-64v-64h-64z" />
    <glyph glyph-name="S" unicode="S" horiz-adv-x="896" 
d="M128 384v64h64v-64h-64zM64 512v64h-64v128h64v-64h64v64h64v-128h-64v-64h-64zM64 -256v128h64v64h64v64h-192v128h64v128h128v-64h64v-64h64v192h64v-64h64v64h64v-64h192v-64h-256v-64h-64v-64h192v-128h-64v-128h-128v64h-64v64h-64v-128h-64v-64h-128zM704 320h64
v-64h-64v64zM832 640v-320h-64v320h64zM512 512h128v64h64v-192h-64v64h-64v-64h64v-64h-128v192zM384 576h64v-256h-64v256zM256 320v320h64v-320h-64zM448 640h192v-64h-192v64zM704 640v64h64v-64h-64zM320 704h64v-64h-64v64zM384 768h320v-64h-320v64z" />
    <glyph glyph-name="T" unicode="T" horiz-adv-x="896" 
d="M256 64v64h-128v64h-64v64h128v64h448v-64h128v-64h-64v-64h-128v-64h-320zM704 320v64h-512v-64h-192v64h64v64h64v64h64v64h192v-64h64v64h192v-64h64v-64h64v-64h64v-64h-128z" />
    <glyph glyph-name="U" unicode="U" horiz-adv-x="960" 
d="M0 -192v128h64v-64h64v-64h-128zM512 192v-64h-256v64h64v256h64v-128h64v-64h-64v-64h128zM704 384v-64h-256v64h64v192h64v-64h64v-64h-64v-64h128zM192 -128h-64v64h64v-64zM192 0h-64v-64h-64v64h64v448h64v-320h64v-64h384v-64h-384v-64h-64v64zM768 64h-128v64h128
v-64zM768 256h64v-128h-64v128zM832 640h-448v-64h-128v-128h-64v128h64v64h128v64h512v-448h-64v384zM640 576h64v-64h-64v64z" />
    <glyph glyph-name="V" unicode="V" horiz-adv-x="768" 
d="M640 0h-192v64h192v-64zM384 0h-192v64h192v-64zM704 192v-128h-64v128h64zM384 128h-64v64h64v128h-128v64h-64v64h-64v256h64v64h128v-64h64v64h64v-64h64v64h128v-64h64v-256h-64v-64h-64v-64h-128v-128h64v-64h-64v-64h-64v64zM128 64v128h64v-128h-64zM512 256h128
v-64h-128v64zM192 256h128v-64h-128v64z" />
    <glyph glyph-name="W" unicode="W" horiz-adv-x="896" 
d="M448 0v128h-64v-128h-192v64h-64v64h-64v128h64v64h-64v64h-64v192h64v64h192v-64h64v128h64v-192h64v192h64v-128h64v64h192v-64h64v-192h-64v-64h-64v-64h64v-128h-64v-64h-64v-64h-192zM640 128v128h-192v-64h64v-64h128zM320 128v64h64v64h-192v-128h128zM640 320v64
h64v128h-192v-64h-64v-128h192zM384 320v128h-64v64h-192v-128h64v-64h192zM512 768h64v-64h-64v64zM256 704v64h64v-64h-64z" />
    <glyph glyph-name="X" unicode="X" horiz-adv-x="832" 
d="M256 128v128h-128v-128h128zM192 320v128h-128v-128h128zM256 512v128h-128v-128h128zM448 0h-128v64h128v-64zM640 256h-128v-128h128v128zM448 192h-128v-128h-192v64h-64v192h-64v128h64v192h64v64h192v-128h128v128h192v-64h-128v-128h128v128h64v-192h64v-128h-64
v128h-128v-128h128v-192h-64v-64h-192v128zM320 768h128v-64h-128v64z" />
    <glyph glyph-name="Y" unicode="Y" horiz-adv-x="832" 
d="M640 384v64h64v128h64v-192h-128zM576 -64h-320v64h320v-64zM576 64h64v-64h-64v64zM128 0v64h128v-64h-128zM640 192h-64v-64h-192v64h192v64h128v-192h-64v128zM64 64v128h64v-128h-64zM320 192v64h64v-64h-64zM0 192v320h64v-320h-64zM256 256v192h64v-192h-64z
M576 448v64h64v-64h-64zM320 512h64v-64h-64v64zM384 576h192v-64h-192v64zM64 640h64v-128h-64v128zM640 576v64h64v-64h-64zM576 640v64h64v-64h-64zM256 640h-128v64h128v-64zM256 768h320v-64h-320v64z" />
    <glyph glyph-name="Z" unicode="Z" horiz-adv-x="768" 
d="M320 0v128h64v-128h-64zM576 64v64h64v-64h-64zM64 64v64h64v-64h-64zM512 512v64h64v-64h-64zM128 512v64h64v-64h-64zM320 576v128h64v-128h-64zM256 192v64h-64v192h64v64h192v-64h64v-192h-64v-64h-192zM704 384v-64h-128v64h128zM128 384v-64h-128v64h128zM512 128
v64h64v-64h-64zM128 192h64v-64h-64v64zM576 640h64v-64h-64v64zM64 576v64h64v-64h-64z" />
    <glyph glyph-name="bracketleft" unicode="[" 
 />
    <glyph glyph-name="backslash" unicode="\" 
 />
    <glyph glyph-name="bracketright" unicode="]" 
 />
    <glyph glyph-name="asciicircum" unicode="^" 
 />
    <glyph glyph-name="underscore" unicode="_" 
 />
    <glyph glyph-name="grave" unicode="`" 
 />
    <glyph glyph-name="a" unicode="a" horiz-adv-x="896" 
d="M256 -256v64h-128v64h-64v128h-64v256h64v128h128v64h192v-192h-64v64h-64v-64h64v-64h192v64h-64v192h192v-64h128v-128h64v-256h-64v-128h-64v-64h-128v-64h-320zM576 256v64h-64v-64h64zM384 640h64v-64h256v-64h-256v-64h-64v192zM768 704v-128h-64v128h64zM448 704
h64v-64h-64v64zM512 768h192v-64h-192v64z" />
    <glyph glyph-name="b" unicode="b" horiz-adv-x="960" 
d="M64 -192v64h64v-64h-64zM448 320v128h64v-128h-64zM256 320v128h64v-128h-64zM768 448v64h64v-64h-64zM320 -192v320h-64v64h256v-64h64v-64h128v-128h-64v-64h-128v-64h-192zM512 -64h128v64h-64v64h-64v64h-128v-256h128v64zM192 0v-128h-64v128h64zM0 -128v128h64
v-128h-64zM64 128h64v-128h-64v128zM512 256h64v-64h-64v64zM192 192v64h64v-64h-64zM640 512v-256h-64v256h64zM128 256v256h64v-256h-64zM896 640v-128h-64v128h64zM704 512v128h64v-128h-64zM512 512v64h64v-64h-64zM192 576h64v-64h-64v64zM256 640h64v128h64v-128h128
v-64h-256v64zM768 768h64v-128h-64v128z" />
    <glyph glyph-name="c" unicode="c" horiz-adv-x="896" 
d="M384 -128h-128v64h128v-64zM448 -64h-64v192h64v-192zM192 -64v64h64v-64h-64zM768 128h-128v64h128v-64zM576 128h-128v64h128v-64zM256 128v64h128v-64h-128zM192 128h-128v64h128v-64zM832 448v-256h-64v256h64zM576 320h64v-128h-64v128zM384 320h64v-128h-64v128z
M192 320h64v-128h-64v128zM0 192v256h64v-256h-64zM704 448v128h64v-128h-64zM64 576h64v-128h-64v128zM576 576v64h128v-64h-128zM256 576h-128v64h128v-64zM256 704h128v64h64v-64h128v-64h-320v64z" />
    <glyph glyph-name="d" unicode="d" horiz-adv-x="896" 
d="M384 -64v128h64v-128h-64zM640 0v64h64v-64h-64zM128 0v64h64v-64h-64zM768 192v64h64v-64h-64zM64 384v64h64v-64h-64zM576 576v64h64v-64h-64zM192 576v64h64v-64h-64zM384 640v128h64v-128h-64zM128 256v-64h-128v64h128zM832 512v-64h-128v64h128zM576 64v64h64v-64
h-64zM192 128h64v-64h-64v64zM512 128h-192v64h192v-64zM512 256h64v-64h-64v64zM256 192v64h64v-64h-64zM704 256v64h64v-64h-64zM640 448v-192h-64v192h64zM192 256v192h64v-192h-64zM512 448v64h64v-64h-64zM256 512h64v-64h-64v64zM0 448v64h64v-64h-64zM320 576h192
v-64h-192v64zM640 704h64v-64h-64v64zM128 640v64h64v-64h-64z" />
    <glyph glyph-name="e" unicode="e" horiz-adv-x="960" 
d="M640 448v64h64v-64h-64zM192 448v64h64v-64h-64zM512 576v128h192v-64h64v-64h64v-64h64v-128h-64v-64h64v-128h-64v-64h-64v-64h-64v-64h-192v-64h-128v64h128v128h64v-64h128v128h128v128h-128v64h128v128h-128v128h-128v-64h-64zM320 576v64h-128v-128h-128v-128h64
v-64h-64v-128h128v-128h128v64h64v-128h-192v64h-64v64h-64v64h-64v128h64v64h-64v128h64v64h64v64h64v64h192v-128h-64zM640 192v64h64v-64h-64zM192 256h64v-64h-64v64zM384 768h128v-64h-128v64z" />
    <glyph glyph-name="f" unicode="f" horiz-adv-x="960" 
d="M768 192v64h64v-64h-64zM512 384v128h64v-128h-64zM320 384v128h64v-128h-64zM0 448v64h64v-64h-64zM768 512v64h64v-64h-64zM64 576v64h64v-64h-64zM640 -256h-384v64h384v-64zM640 -128h64v-64h-64v64zM192 -192v64h64v-64h-64zM768 128v-256h-64v256h64zM128 -128v256
h64v-256h-64zM640 128v64h64v-64h-64zM192 192h64v-64h-64v64zM320 320v-64h256v64h64v-128h-384v128h64zM896 320v-64h-64v64h64zM704 256v64h64v-64h-64zM768 384h64v-64h-64v64zM704 576v-256h-64v256h64zM192 320v256h64v-256h-64zM576 576v64h64v-64h-64zM256 640h64
v-64h-64v64zM320 704h256v-64h-256v64zM192 704v-64h-64v64h64zM0 640v64h64v-64h-64zM64 768h64v-64h-64v64z" />
    <glyph glyph-name="g" unicode="g" horiz-adv-x="960" 
d="M640 -128v64h64v-64h-64zM512 -128v64h64v-64h-64zM768 -64v128h128v-64h-64v-64h-64zM384 -64v64h-64v64h128v-128h-64zM128 0v64h64v-64h-64zM64 128v64h64v-64h-64zM128 448v128h-64v-64h-64v64h64v64h64v128h64v-128h64v-64h64v-64h-64v64h-64v-128h-64zM832 512v64
h64v-64h-64zM640 576v64h64v-64h-64zM576 128h-64v-64h-64v64h64v64h64v192h64v-192h64v-64h64v-64h-64v64h-64v-192h-64v192zM704 256h64v-64h-64v64zM448 192v64h64v-64h-64zM192 256v-64h-64v64h64zM0 192v64h64v-64h-64zM768 384h64v-64h64v-64h-128v128zM320 256v64h64
v64h64v-128h-128zM64 320h64v-64h-64v64zM640 448h64v-64h-64v64zM512 384v64h64v-64h-64zM768 704v-64h-64v64h64zM576 640v64h64v-64h-64zM256 704h64v-64h-64v64zM0 640v64h64v-64h-64zM640 768h64v-64h-64v64z" />
    <glyph glyph-name="h" unicode="h" horiz-adv-x="896" 
d="M704 64v64h64v-64h-64zM64 64v64h64v-64h-64zM320 64v64h-64v64h-64v-64h-64v64h64v192h64v64h64v64h192v-64h64v-64h64v-192h64v-64h-64v64h-64v-64h-64v-64h-192zM448 128v64h-64v-64h64zM576 256v64h-64v-64h64zM320 256v64h-64v-64h64zM448 384v64h-64v-64h64z
M832 256v-128h-64v128h64zM0 128v128h64v-128h-64zM704 256v64h64v-64h-64zM128 320v-64h-64v64h64zM832 448v-128h-64v128h64zM0 320v128h64v-128h-64zM640 448h64v-64h-64v64zM128 384v64h64v-64h-64zM704 512h64v-64h-64v64zM64 512h64v-64h-64v64z" />
    <glyph glyph-name="i" unicode="i" horiz-adv-x="960" 
d="M192 192v128h64v-128h-64zM640 512v128h64v-128h-64zM320 0h-192v64h192v-64zM320 128h64v-64h-64v64zM64 64v64h64v-64h-64zM448 320v-192h-64v192h64zM0 128v192h64v-192h-64zM768 320h-192v64h192v-64zM256 384h128v-64h-128v64zM64 384h128v-64h-128v64zM768 448h64
v-64h-64v64zM512 384v64h64v-64h-64zM896 640v-192h-64v192h64zM448 448v192h64v-192h-64zM704 704h128v-64h-128v64zM512 704h128v-64h-128v64z" />
    <glyph glyph-name="j" unicode="j" horiz-adv-x="896" 
d="M768 384v128h64v-128h-64zM576 384v128h64v-128h-64zM256 384v128h64v-128h-64zM64 384v128h64v-128h-64zM576 0h-256v64h256v-64zM576 128h64v-64h-64v64zM256 64v64h64v-64h-64zM640 256h64v-128h-64v128zM192 128v128h64v-128h-64zM640 576h128v-64h-128v64zM128 576
h128v-64h-128v64z" />
    <glyph glyph-name="k" unicode="k" horiz-adv-x="896" 
d="M704 256v64h64v-64h-64zM64 256v64h64v-64h-64zM512 0h-192v64h192v-64zM512 128h64v-64h-64v64zM256 64v64h64v-64h-64zM576 192h-320v-64h-64v128h448v-128h-64v64zM640 320v64h-64v64h64v64h64v-64h128v-64h-128v-64h-64zM128 384h-128v64h128v64h64v-64h64v-64h-64
v-64h-64v64zM704 576h64v-64h-64v64zM64 512v64h64v-64h-64z" />
    <glyph glyph-name="l" unicode="l" horiz-adv-x="896" 
d="M576 64v128h64v-128h-64zM192 64v128h64v-128h-64zM704 256v64h64v-64h-64zM64 256v64h64v-64h-64zM256 256h320v-64h-320v64zM640 320v64h-64v64h64v64h64v-64h128v-64h-128v-64h-64zM128 384h-128v64h128v64h64v-64h64v-64h-64v-64h-64v64zM704 576h64v-64h-64v64z
M64 512v64h64v-64h-64z" />
    <glyph glyph-name="m" unicode="m" horiz-adv-x="896" 
d="M640 448v64h-64v64h-64v64h64v64h64v64h64v-64h64v-64h64v-64h-64v-64h-64v-64h-64zM512 -64v64h-256v-64h256zM576 64v64h-320v-64h320zM448 -256h-192v64h192v-64zM448 -128h-192v-64h-128v64h64v256h64v128h64v-64h320v-192h-64v-128h-64v-64h-64v64zM64 -128v64h64
v-64h-64zM0 -64v256h64v-256h-64zM704 320v-128h-64v128h64zM64 256h64v-64h-64v64zM320 320h64v320h64v-256h192v-64h-192v-64h-128v64zM128 320h64v-64h-64v64zM256 448v-128h-64v128h64zM128 448v192h64v-192h-64zM192 704h192v-64h-192v64z" />
    <glyph glyph-name="n" unicode="n" horiz-adv-x="640" 
d="M384 -64h-192v64h192v-64zM384 64h64v-64h-64v64zM128 0v64h64v-64h-64zM448 128h64v-64h-64v64zM64 64v64h64v-64h-64zM576 320v-192h-64v192h64zM0 128v192h64v-192h-64zM448 320v128h64v-128h-64zM64 448h64v-128h-64v128zM384 448v64h64v-64h-64zM128 512h64v-64h-64
v64zM320 512v64h64v-64h-64zM192 576h64v-64h-64v64zM256 704h64v-128h-64v128z" />
    <glyph glyph-name="o" unicode="o" horiz-adv-x="960" 
d="M320 -256h-192v64h192v-64zM320 -128h64v-64h-64v64zM64 -192v64h64v-64h-64zM448 64v-192h-64v192h64zM0 -128v192h64v-192h-64zM320 64v128h64v-128h-64zM64 192h64v-128h-64v128zM768 128h-192v64h192v-64zM768 256h64v-64h-64v64zM512 192v64h64v-64h-64zM256 192v64
h64v-64h-64zM128 256h64v-64h-64v64zM896 448v-192h-64v192h64zM448 256v192h64v-192h-64zM192 384h64v-128h-64v128zM768 448v128h64v-128h-64zM512 576h64v-128h-64v128zM704 576v64h64v-64h-64zM576 640h64v-64h-64v64zM640 768h64v-128h-64v128z" />
    <glyph glyph-name="p" unicode="p" horiz-adv-x="960" 
d="M512 384v64h64v-64h-64zM576 -128h-192v64h192v-64zM576 0h64v-64h-64v64zM320 -64v64h64v-64h-64zM768 64h-64v-64h-64v128h128v-64zM256 0v128h-128v64h192v-192h-64zM768 192h64v-64h-64v64zM576 128v64h64v-64h-64zM896 384v-192h-64v192h64zM64 192v64h-64v64h192
v256h64v-192h64v-64h-64v-64h-128v-64h-64zM768 384v64h64v-64h-64zM640 576v-64h128v-64h-192v128h64zM512 576v64h64v-64h-64zM256 640h64v-64h-64v64zM320 704h192v-64h-192v64z" />
    <glyph glyph-name="q" unicode="q" horiz-adv-x="896" 
d="M512 384v128h64v-128h-64zM256 384v128h64v-128h-64zM512 -192v64h-192v-64h-320v192h64v64h64v-128h-64v-64h192v64h320v-64h192v64h-64v128h64v-64h64v-192h-320zM640 64v-64h-128v64h128zM320 256v64h64v64h64v-64h64v-64h-192zM320 0h-128v64h128v-64zM832 384v-320
h-64v320h64zM448 64v128h192v-64h-128v-64h-64zM320 128h-128v64h192v-128h-64v64zM0 64v320h64v-320h-64zM704 384v128h64v-128h-64zM128 384h-64v128h64v-128zM832 704v-192h-64v192h64zM640 512v64h64v-64h-64zM128 576h64v-64h-64v64zM0 512v192h64v-192h-64zM576 576
v64h-320v-64h-64v128h448v-128h-64zM640 768h128v-64h-128v64zM64 768h128v-64h-128v64z" />
    <glyph glyph-name="r" unicode="r" horiz-adv-x="832" 
d="M128 -128v64h-64v64h-64v320h64v128h64v64h64v64h64v64h128v64h128v64h192v-128h64v-512h-64v-128h-64v-64h-128v-64h-384zM448 -64v64h64v64h64v64h64v128h64v320h-64v-256h-64v-128h-64v-64h-64v-64h-64v-64h-128v-64h192zM128 0v192h64v128h64v128h-64v-64h-64v-128
h-64v-256h64zM256 64v64h-64v-64h64zM320 128v128h-64v-128h64zM384 256v64h-64v-64h64zM448 320v128h-64v-128h64zM512 448v128h-64v64h-64v-64h-64v-64h-64v-64h64v64h64v64h64v-128h64zM576 576v64h-64v-64h64zM640 640v64h-64v-64h64z" />
    <glyph glyph-name="s" unicode="s" horiz-adv-x="832" 
d="M64 -128v64h-64v192h64v64h192v384h128v64h128v64h128v64h128v-768h-64v-64h-192v64h-64v192h64v64h192v256h-128v-64h-128v-64h-128v-448h-64v-64h-192z" />
    <glyph glyph-name="t" unicode="t" horiz-adv-x="768" 
d="M320 0v-64h-256v64h64v64h64v-64h128zM704 384v-64h-384v64h64v64h64v64h64v64h64v64h-256v64h384v-128h-64v-64h-64v-64h-64v-64h192zM192 128h-128v64h256v-64h-64v-64h-64v64z" />
    <glyph glyph-name="u" unicode="u" horiz-adv-x="960" 
d="M512 -256v64h-64v256h64v64h64v64h-64v128h-128v64h256v-64h-64v-64h64v-128h128v-64h64v-256h-64v-64h-256zM704 -128v64h-64v-64h64zM64 -128v64h-64v256h64v64h128v64h64v128h64v192h64v-64h64v64h192v-64h-128v-64h-128v-128h-64v-192h64v-256h-64v-64h-256zM256 0
v64h-64v-64h64zM768 384h-128v64h128v-64zM768 512h64v-64h-64v64zM832 640h-64v64h128v-192h-64v128zM384 704h64v-64h-64v64zM448 768h320v-64h-320v64z" />
    <glyph glyph-name="v" unicode="v" horiz-adv-x="960" 
d="M320 512v64h64v-64h-64zM320 -192v64h-128v64h-64v128h-64v128h128v128h64v-64h128v128h64v-64h128v128h-64v64h128v128h64v-128h64v-64h64v-128h64v-320h-64v-128h-64v-64h-448zM768 0v64h-64v-64h64zM512 0v64h-64v-64h64zM640 128v64h-64v-64h64zM768 256v64h-64v-64
h64zM0 192v192h64v-192h-64zM64 448h64v-64h-64v64zM128 512h64v64h64v-128h-128v64zM384 640h64v-64h-64v64zM320 704v-128h-64v128h64zM128 576v128h64v-128h-64zM448 704h192v-64h-192v64zM192 768h64v-64h-64v64z" />
    <glyph glyph-name="w" unicode="w" horiz-adv-x="960" 
d="M320 0h-192v64h192v-64zM320 128h64v-64h-64v64zM64 64v192h64v-192h-64zM512 192h-64v-64h-64v128h128v-64zM832 256h-320v192h64v-128h256v-64zM256 256v64h64v128h64v-192h-128zM0 256v192h64v-192h-64zM896 512v-192h-64v192h64zM576 512h64v-64h-64v64zM384 512h64
v128h64v-192h-128v64zM64 512h256v-64h-256v64zM768 512v192h64v-192h-64zM512 704h64v-64h-64v64zM576 768h192v-64h-192v64z" />
    <glyph glyph-name="x" unicode="x" horiz-adv-x="960" 
d="M576 -256v64h-64v256h64v64h256v-64h64v-256h-64v-64h-256zM64 -256v64h-64v256h64v64h256v-64h64v-256h-64v-64h-256zM640 192v64h-64v128h-64v320h64v64h256v-64h64v-320h-64v-128h-64v-64h-128zM128 192v64h-64v128h-64v320h64v64h256v-64h64v-320h-64v-128h-64v-64
h-128z" />
    <glyph glyph-name="y" unicode="y" horiz-adv-x="960" 
d="M512 -256v64h-64v256h64v64h256v-64h64v-256h-64v-64h-256zM64 -256v64h-64v256h64v64h256v-64h64v-256h-64v-64h-256zM576 192v64h-64v128h64v64h128v64h-256v192h64v64h256v-64h64v-64h64v-256h-64v-64h-128v-128h-128zM128 192v64h-64v128h-64v320h64v64h256v-64h64
v-320h-64v-128h-64v-64h-128z" />
    <glyph glyph-name="z" unicode="z" horiz-adv-x="384" 
d="M128 384v64h64v-64h-64zM0 448v128h64v-128h-64zM320 320v-64h-128v64h128zM192 512h64v-64h-64v64z" />
    <glyph glyph-name="braceleft" unicode="{" 
 />
    <glyph glyph-name="bar" unicode="|" 
 />
    <glyph glyph-name="braceright" unicode="}" 
 />
    <glyph glyph-name="asciitilde" unicode="~" 
 />
    <glyph glyph-name="uni00A0" unicode="&#xa0;" 
 />
    <glyph glyph-name="exclamdown" unicode="&#xa1;" 
 />
    <glyph glyph-name="cent" unicode="&#xa2;" 
 />
    <glyph glyph-name="sterling" unicode="&#xa3;" 
 />
    <glyph glyph-name="currency" unicode="&#xa4;" 
 />
    <glyph glyph-name="yen" unicode="&#xa5;" 
 />
    <glyph glyph-name="brokenbar" unicode="&#xa6;" 
 />
    <glyph glyph-name="section" unicode="&#xa7;" 
 />
    <glyph glyph-name="dieresis" unicode="&#xa8;" 
 />
    <glyph glyph-name="copyright" unicode="&#xa9;" 
 />
    <glyph glyph-name="ordfeminine" unicode="&#xaa;" 
 />
    <glyph glyph-name="guillemotleft" unicode="&#xab;" 
 />
    <glyph glyph-name="logicalnot" unicode="&#xac;" 
 />
    <glyph glyph-name="uni00AD" unicode="&#xad;" 
 />
    <glyph glyph-name="registered" unicode="&#xae;" 
 />
    <glyph glyph-name="macron" unicode="&#xaf;" 
 />
    <glyph glyph-name="degree" unicode="&#xb0;" 
 />
    <glyph glyph-name="plusminus" unicode="&#xb1;" 
 />
    <glyph glyph-name="uni00B2" unicode="&#xb2;" 
 />
    <glyph glyph-name="uni00B3" unicode="&#xb3;" 
 />
    <glyph glyph-name="acute" unicode="&#xb4;" 
 />
    <glyph glyph-name="mu" unicode="&#xb5;" 
 />
    <glyph glyph-name="paragraph" unicode="&#xb6;" 
 />
    <glyph glyph-name="periodcentered" unicode="&#xb7;" 
 />
    <glyph glyph-name="cedilla" unicode="&#xb8;" 
 />
    <glyph glyph-name="uni00B9" unicode="&#xb9;" 
 />
    <glyph glyph-name="ordmasculine" unicode="&#xba;" 
 />
    <glyph glyph-name="guillemotright" unicode="&#xbb;" 
 />
    <glyph glyph-name="onequarter" unicode="&#xbc;" 
 />
    <glyph glyph-name="onehalf" unicode="&#xbd;" 
 />
    <glyph glyph-name="threequarters" unicode="&#xbe;" 
 />
    <glyph glyph-name="questiondown" unicode="&#xbf;" 
 />
    <glyph glyph-name="Agrave" unicode="&#xc0;" 
 />
    <glyph glyph-name="Aacute" unicode="&#xc1;" 
 />
    <glyph glyph-name="Acircumflex" unicode="&#xc2;" 
 />
    <glyph glyph-name="Atilde" unicode="&#xc3;" 
 />
    <glyph glyph-name="Adieresis" unicode="&#xc4;" 
 />
    <glyph glyph-name="Aring" unicode="&#xc5;" 
 />
    <glyph glyph-name="AE" unicode="&#xc6;" 
 />
    <glyph glyph-name="Ccedilla" unicode="&#xc7;" 
 />
    <glyph glyph-name="Egrave" unicode="&#xc8;" 
 />
    <glyph glyph-name="Eacute" unicode="&#xc9;" 
 />
    <glyph glyph-name="Ecircumflex" unicode="&#xca;" 
 />
    <glyph glyph-name="Edieresis" unicode="&#xcb;" 
 />
    <glyph glyph-name="Igrave" unicode="&#xcc;" 
 />
    <glyph glyph-name="Iacute" unicode="&#xcd;" 
 />
    <glyph glyph-name="Icircumflex" unicode="&#xce;" 
 />
    <glyph glyph-name="Idieresis" unicode="&#xcf;" 
 />
    <glyph glyph-name="Eth" unicode="&#xd0;" 
 />
    <glyph glyph-name="Ntilde" unicode="&#xd1;" 
 />
    <glyph glyph-name="Ograve" unicode="&#xd2;" 
 />
    <glyph glyph-name="Oacute" unicode="&#xd3;" 
 />
    <glyph glyph-name="Ocircumflex" unicode="&#xd4;" 
 />
    <glyph glyph-name="Otilde" unicode="&#xd5;" 
 />
    <glyph glyph-name="Odieresis" unicode="&#xd6;" 
 />
    <glyph glyph-name="multiply" unicode="&#xd7;" 
 />
    <glyph glyph-name="Oslash" unicode="&#xd8;" 
 />
    <glyph glyph-name="Ugrave" unicode="&#xd9;" 
 />
    <glyph glyph-name="Uacute" unicode="&#xda;" 
 />
    <glyph glyph-name="Ucircumflex" unicode="&#xdb;" 
 />
    <glyph glyph-name="Udieresis" unicode="&#xdc;" 
 />
    <glyph glyph-name="Yacute" unicode="&#xdd;" 
 />
    <glyph glyph-name="Thorn" unicode="&#xde;" 
 />
    <glyph glyph-name="germandbls" unicode="&#xdf;" 
 />
    <glyph glyph-name="agrave" unicode="&#xe0;" 
 />
    <glyph glyph-name="aacute" unicode="&#xe1;" 
 />
    <glyph glyph-name="acircumflex" unicode="&#xe2;" 
 />
    <glyph glyph-name="atilde" unicode="&#xe3;" 
 />
    <glyph glyph-name="adieresis" unicode="&#xe4;" 
 />
    <glyph glyph-name="aring" unicode="&#xe5;" 
 />
    <glyph glyph-name="ae" unicode="&#xe6;" 
 />
    <glyph glyph-name="ccedilla" unicode="&#xe7;" 
 />
    <glyph glyph-name="egrave" unicode="&#xe8;" 
 />
    <glyph glyph-name="eacute" unicode="&#xe9;" 
 />
    <glyph glyph-name="ecircumflex" unicode="&#xea;" 
 />
    <glyph glyph-name="edieresis" unicode="&#xeb;" 
 />
    <glyph glyph-name="igrave" unicode="&#xec;" 
 />
    <glyph glyph-name="iacute" unicode="&#xed;" 
 />
    <glyph glyph-name="icircumflex" unicode="&#xee;" 
 />
    <glyph glyph-name="idieresis" unicode="&#xef;" 
 />
    <glyph glyph-name="eth" unicode="&#xf0;" 
 />
    <glyph glyph-name="ntilde" unicode="&#xf1;" 
 />
    <glyph glyph-name="ograve" unicode="&#xf2;" 
 />
    <glyph glyph-name="oacute" unicode="&#xf3;" 
 />
    <glyph glyph-name="ocircumflex" unicode="&#xf4;" 
 />
    <glyph glyph-name="otilde" unicode="&#xf5;" 
 />
    <glyph glyph-name="odieresis" unicode="&#xf6;" 
 />
    <glyph glyph-name="divide" unicode="&#xf7;" 
 />
    <glyph glyph-name="oslash" unicode="&#xf8;" 
 />
    <glyph glyph-name="ugrave" unicode="&#xf9;" 
 />
    <glyph glyph-name="uacute" unicode="&#xfa;" 
 />
    <glyph glyph-name="ucircumflex" unicode="&#xfb;" 
 />
    <glyph glyph-name="udieresis" unicode="&#xfc;" 
 />
    <glyph glyph-name="yacute" unicode="&#xfd;" 
 />
    <glyph glyph-name="thorn" unicode="&#xfe;" 
 />
    <glyph glyph-name="ydieresis" unicode="&#xff;" 
 />
    <glyph glyph-name="OE" unicode="&#x152;" 
 />
    <glyph glyph-name="oe" unicode="&#x153;" 
 />
    <glyph glyph-name="Scaron" unicode="&#x160;" 
 />
    <glyph glyph-name="scaron" unicode="&#x161;" 
 />
    <glyph glyph-name="Ydieresis" unicode="&#x178;" 
 />
    <glyph glyph-name="Zcaron" unicode="&#x17d;" 
 />
    <glyph glyph-name="zcaron" unicode="&#x17e;" 
 />
    <glyph glyph-name="florin" unicode="&#x192;" 
 />
    <glyph glyph-name="circumflex" unicode="&#x2c6;" 
 />
    <glyph glyph-name="tilde" unicode="&#x2dc;" 
 />
    <glyph glyph-name="endash" unicode="&#x2013;" 
 />
    <glyph glyph-name="emdash" unicode="&#x2014;" 
 />
    <glyph glyph-name="quoteleft" unicode="&#x2018;" 
 />
    <glyph glyph-name="quoteright" unicode="&#x2019;" 
 />
    <glyph glyph-name="quotesinglbase" unicode="&#x201a;" 
 />
    <glyph glyph-name="quotedblleft" unicode="&#x201c;" 
 />
    <glyph glyph-name="quotedblright" unicode="&#x201d;" 
 />
    <glyph glyph-name="quotedblbase" unicode="&#x201e;" 
 />
    <glyph glyph-name="dagger" unicode="&#x2020;" 
 />
    <glyph glyph-name="daggerdbl" unicode="&#x2021;" 
 />
    <glyph glyph-name="bullet" unicode="&#x2022;" 
 />
    <glyph glyph-name="ellipsis" unicode="&#x2026;" 
 />
    <glyph glyph-name="perthousand" unicode="&#x2030;" 
 />
    <glyph glyph-name="guilsinglleft" unicode="&#x2039;" 
 />
    <glyph glyph-name="guilsinglright" unicode="&#x203a;" 
 />
    <glyph glyph-name="Euro" unicode="&#x20ac;" 
 />
    <glyph glyph-name="trademark" unicode="&#x2122;" 
 />
    <glyph glyph-name="uni2219" unicode="&#x2219;" 
 />
  </font>
</defs>
</svg>
