<?xml version="1.0" standalone="no"?>
<!DOCTYPE svg PUBLIC "-//W3C//DTD SVG 1.1//EN" "http://www.w3.org/Graphics/SVG/1.1/DTD/svg11.dtd" >
<svg xmlns="http://www.w3.org/2000/svg" xmlns:xlink="http://www.w3.org/1999/xlink" version="1.1">
<metadata>
Created by FontForge 20201107 at Fri Apr 26 16:07:06 2024
 By 
shai
</metadata>
<defs>
<font id="lacythefool" horiz-adv-x="640" >
  <font-face 
    font-family="lacythefool"
    font-weight="500"
    font-stretch="normal"
    units-per-em="1024"
    panose-1="2 0 6 3 0 0 0 0 0 0"
    ascent="768"
    descent="-256"
    x-height="448"
    cap-height="704"
    bbox="-128 -192 896 768"
    underline-thickness="51"
    underline-position="-152"
    unicode-range="U+0020-A4B7"
  />
<missing-glyph horiz-adv-x="374" 
d="M34 0v682h272v-682h-272zM68 34h204v614h-204v-614z" />
    <glyph glyph-name=".notdef" horiz-adv-x="374" 
d="M34 0v682h272v-682h-272zM68 34h204v614h-204v-614z" />
    <glyph glyph-name=".null" horiz-adv-x="0" 
 />
    <glyph glyph-name="nonmarkingreturn" horiz-adv-x="341" 
 />
    <glyph glyph-name="space" unicode=" " horiz-adv-x="192" 
 />
    <glyph glyph-name="exclam" unicode="!" horiz-adv-x="448" 
d="M128 0v64h64v-64h-64zM128 128v64h64v-64h-64zM192 192v64v64v64v64h64v-64v-64v-64v-64h-64zM256 448v64v64v64v64h64v-64v-64v-64v-64h-64z" />
    <glyph glyph-name="quotedbl" unicode="&#x22;" horiz-adv-x="448" 
d="M192 384v64h64v-64h-64zM0 384v64h64v-64h-64zM256 448v64h64v-64h-64zM64 448v64h64v-64h-64z" />
    <glyph glyph-name="numbersign" unicode="#" horiz-adv-x="704" 
d="M256 0v64v64h64v-64v-64h-64zM64 0v64v64h64v-64v-64h-64zM320 128v64h-64h-64v-64h-64v64h-64h-64v64h64h64v64v64h64v-64v-64h64h64v64v64h64v-64v-64h64h64v-64h-64h-64v-64h-64zM384 384v64h-64h-64v-64h-64v64h-64h-64v64h64h64v64v64h64v-64v-64h64h64v64v64h64
v-64v-64h64h64v-64h-64h-64v-64h-64zM448 640v64h64v-64h-64zM256 640v64h64v-64h-64z" />
    <glyph glyph-name="dollar" unicode="$" horiz-adv-x="704" 
d="M320 -128v64h-64h-64v64h64h64v64v64v64v64h-64v64h-64h-64v64h-64v64v64h64v64h64v64h64h64v64h64v-64h64h64v-64h64v-64h-64v64h-64h-64v-64v-64v-64v-64h64v-64h64v-64h64v-64v-64h-64v-64h-64v64h64v64v64h-64v64h-64v-64v-64v-64v-64h64v-64h-64v-64h-64zM192 0h-64
v64h64v-64zM128 64h-64v64h64v-64zM320 320v64v64v64v64h-64h-64v-64h-64v-64v-64h64h64v-64h64z" />
    <glyph glyph-name="percent" unicode="%" horiz-adv-x="896" 
d="M192 0v64v64h64v-64v-64h-64zM640 64h64v-64h-64h-64v64h64zM704 64v64v64h64v-64v-64h-64zM576 64h-64v64v64h64v-64v-64zM256 128v64v64h64v-64v-64h-64zM704 192h-64h-64v64h64h64v-64zM320 256v64v64h64v-64v-64h-64zM384 384v64v64h64v-64v-64h-64zM128 512h64v-64
h-64h-64v64h64zM448 512v64v64h64v-64v-64h-64zM192 512v64v64h64v-64v-64h-64zM64 512h-64v64v64h64v-64v-64zM512 640v64h64v-64h-64zM192 640h-64h-64v64h64h64v-64z" />
    <glyph glyph-name="quotesingle" unicode="'" horiz-adv-x="320" 
d="M64 448v64h64v-64h-64zM128 512v64v64h64v-64v-64h-64z" />
    <glyph glyph-name="parenleft" unicode="(" horiz-adv-x="384" 
d="M192 0v64h64v-64h-64zM192 64h-64v64v64h64v-64v-64zM128 192h-64v64v64v64v64v64h64v-64v-64v-64v-64v-64zM128 512v64v64h64v-64v-64h-64zM192 640v64h64v-64h-64z" />
    <glyph glyph-name="parenright" unicode=")" horiz-adv-x="384" 
d="M64 0v64h64v-64h-64zM128 64v64v64h64v-64v-64h-64zM192 192v64v64v64v64v64h64v-64v-64v-64v-64v-64h-64zM192 512h-64v64v64h64v-64v-64zM128 640h-64v64h64v-64z" />
    <glyph glyph-name="asterisk" unicode="*" horiz-adv-x="448" 
d="M128 384v64h64v-64h-64zM128 576v64h64v-64h-64zM192 448v64h64v-64h-64zM128 448h-64v64h64v-64zM256 512v64v64h64v-64v-64h-64zM64 512h-64v64v64h64v-64v-64zM192 640v64h64v-64h-64zM64 640v64h64v-64h-64z" />
    <glyph glyph-name="plus" unicode="+" horiz-adv-x="576" 
d="M256 192v64v64h-64h-64v64h64h64v64v64h64v-64v-64h64h64v-64h-64h-64v-64v-64h-64z" />
    <glyph glyph-name="comma" unicode="," horiz-adv-x="384" 
d="M128 -64v64h64v-64h-64zM192 0v64v64h64v-64v-64h-64z" />
    <glyph glyph-name="hyphen" unicode="-" horiz-adv-x="384" 
d="M192 320h64v-64h-64h-64h-64v64h64h64z" />
    <glyph glyph-name="period" unicode="." horiz-adv-x="384" 
d="M128 -64v64h64v-64h-64zM192 0v64h64v-64h-64zM128 0h-64v64h64v-64zM128 64v64h64v-64h-64z" />
    <glyph glyph-name="slash" unicode="/" horiz-adv-x="512" 
d="M0 0v64v64h64v-64v-64h-64zM64 128v64v64h64v-64v-64h-64zM128 256v64v64h64v-64v-64h-64zM192 384v64v64h64v-64v-64h-64zM256 512v64v64h64v-64v-64h-64zM320 640v64h64v-64h-64z" />
    <glyph glyph-name="zero" unicode="0" horiz-adv-x="896" 
d="M512 64h64v-64h-64h-64h-64h-64h-64v64h64h64h64h64zM576 64v64h64v-64h-64zM256 64h-64v64h64v-64zM640 128v64v64h64v-64v-64h-64zM576 128h-64v64h64v-64zM192 128h-64v64v64h64v-64v-64zM512 192h-64v64v64h64v-64v-64zM704 256v64v64v64h64v-64v-64v-64h-64z
M128 256h-64v64v64v64h64v-64v-64v-64zM448 320h-64v64h64v-64zM384 384h-64v64v64h64v-64v-64zM704 448h-64v64v64h64v-64v-64zM128 448v64v64h64v-64v-64h-64zM320 512h-64v64h64v-64zM640 576h-64v64h64v-64zM192 576v64h64v-64h-64zM576 640h-64h-64h-64h-64h-64v64h64
h64h64h64h64v-64z" />
    <glyph glyph-name="one" unicode="1" horiz-adv-x="704" 
d="M128 512v64h64v-64h-64zM512 64h64v-64h-64h-64h-64h-64h-64h-64h-64v64h64h64h64v64v64v64v64v64v64v64v64v64h-64v-64h-64v64h64v64h64h64v-64v-64v-64v-64v-64v-64v-64v-64v-64v-64h64h64z" />
    <glyph glyph-name="two" unicode="2" 
d="M128 448v64h64v-64h-64zM384 64h64v-64h-64h-64h-64h-64h-64h-64v64v64h64v-64h64h64h64h64zM448 64v64h64v-64h-64zM128 128v64h64v-64h-64zM192 192v64h64v-64h-64zM256 256v64h64v-64h-64zM320 320v64h64v-64h-64zM384 384v64h64v-64h-64zM448 448v64v64h64v-64v-64
h-64zM128 512h-64v64h64v-64zM448 576h-64v64h64v-64zM128 576v64h64v-64h-64zM384 640h-64h-64h-64v64h64h64h64v-64z" />
    <glyph glyph-name="three" unicode="3" horiz-adv-x="576" 
d="M0 512v64h64v-64h-64zM256 64h64v-64h-64h-64h-64v64h64h64zM320 64v64h64v-64h-64zM128 64h-64v64h64v-64zM384 128v64v64h64v-64v-64h-64zM64 128h-64v64h64v-64zM384 256h-64v64h64v-64zM320 320h-64h-64h-64v64h64h64h64v-64zM320 384v64h64v-64h-64zM384 448v64v64
h64v-64v-64h-64zM384 576h-64v64h64v-64zM64 576v64h64v-64h-64zM320 640h-64h-64h-64v64h64h64h64v-64z" />
    <glyph glyph-name="four" unicode="4" 
d="M384 0v64v64v64h-64h-64h-64h-64v64h-64v64v64h64v64h64v64h64v64h64v64h64v64h64v-64v-64v-64v-64v-64v-64v-64h64v-64h-64v-64v-64v-64h-64zM320 256h64v64v64v64v64v64h-64v-64h-64v-64h-64v-64h-64v-64v-64h64h64h64z" />
    <glyph glyph-name="five" unicode="5" 
d="M448 576v64h64v-64h-64zM320 64h64v-64h-64h-64h-64h-64v64h64h64h64zM384 64v64h64v-64h-64zM128 64h-64v64v64h64v-64v-64zM448 128v64v64v64h64v-64v-64v-64h-64zM448 320h-64v64h64v-64zM384 384h-64h-64h-64h-64v64h64h64h64h64v-64zM128 448h-64v64v64v64v64h64h64
h64h64h64h64v-64h-64h-64h-64h-64h-64v-64v-64v-64z" />
    <glyph glyph-name="six" unicode="6" 
d="M448 576v64h64v-64h-64zM320 64h64v-64h-64h-64h-64v64h64h64zM384 64v64h64v-64h-64zM192 64h-64v64h64v-64zM448 128v64v64v64v64h64v-64v-64v-64v-64h-64zM128 128h-64v64v64v64v64v64v64v64h64v-64v-64h64v-64h-64v-64v-64v-64v-64zM448 384h-64v64h64v-64zM384 448
h-64h-64h-64v64h64h64h64v-64zM128 576v64h64v-64h-64zM448 640h-64h-64h-64h-64v64h64h64h64h64v-64z" />
    <glyph glyph-name="seven" unicode="7" 
d="M192 0v64v64v64v64h64v-64v-64v-64v-64h-64zM256 256v64v64h64v-64v-64h-64zM320 384v64v64h64v-64v-64h-64zM384 512v64h64v-64h-64zM448 576v64h-64h-64h-64h-64h-64h-64v64h64h64h64h64h64h64h64v-64v-64h-64z" />
    <glyph glyph-name="eight" unicode="8" 
d="M320 64h64v-64h-64h-64h-64v64h64h64zM384 64v64h64v-64h-64zM192 64h-64v64h64v-64zM448 128v64v64h64v-64v-64h-64zM128 128h-64v64v64h64v-64v-64zM448 256h-64v64h64v-64zM128 256v64h64v-64h-64zM384 320h-64h-64h-64v64h64h64h64v-64zM384 384v64h64v-64h-64z
M192 384h-64v64h64v-64zM448 448v64v64h64v-64v-64h-64zM128 448h-64v64v64h64v-64v-64zM448 576h-64v64h64v-64zM128 576v64h64v-64h-64zM384 640h-64h-64h-64v64h64h64h64v-64z" />
    <glyph glyph-name="nine" unicode="9" 
d="M320 64h64v-64h-64h-64h-64h-64v64h64h64h64zM384 64v64h64v-64h-64zM128 64h-64v64h64v-64zM448 128v64v64v64h-64v-64h-64h-64h-64v64h64h64h64v64h64v64v64v64h64v-64v-64v-64v-64v-64v-64v-64h-64zM192 320h-64v64h64v-64zM128 384h-64v64v64v64h64v-64v-64v-64z
M448 576h-64v64h64v-64zM128 576v64h64v-64h-64zM384 640h-64h-64h-64v64h64h64h64v-64z" />
    <glyph glyph-name="colon" unicode=":" horiz-adv-x="384" 
d="M128 0v64h64v-64h-64zM128 320v64h64v-64h-64zM192 64v64h64v-64h-64zM128 64h-64v64h64v-64zM128 128v64h64v-64h-64zM192 384v64h64v-64h-64zM128 384h-64v64h64v-64zM128 448v64h64v-64h-64z" />
    <glyph glyph-name="semicolon" unicode=";" horiz-adv-x="384" 
d="M64 -64v64h64v-64h-64zM128 320v64h64v-64h-64zM128 0v64v64h64v-64v-64h-64zM192 384v64h64v-64h-64zM128 384h-64v64h64v-64zM128 448v64h64v-64h-64z" />
    <glyph glyph-name="less" unicode="&#x3c;" horiz-adv-x="576" 
d="M384 128v64h64v-64h-64zM384 192h-64h-64v64h64h64v-64zM256 256h-64h-64v64h64h64v-64zM128 320h-64v64h64v-64zM192 448h64v-64h-64h-64v64h64zM320 512h64v-64h-64h-64v64h64zM384 512v64h64v-64h-64z" />
    <glyph glyph-name="equal" unicode="=" horiz-adv-x="512" 
d="M320 256h64v-64h-64h-64h-64h-64v64h64h64h64zM320 384h64v-64h-64h-64h-64h-64v64h64h64h64z" />
    <glyph glyph-name="greater" unicode="&#x3e;" horiz-adv-x="576" 
d="M64 128v64h64v-64h-64zM192 256h64v-64h-64h-64v64h64zM320 320h64v-64h-64h-64v64h64zM384 320v64h64v-64h-64zM384 384h-64h-64v64h64h64v-64zM256 448h-64h-64v64h64h64v-64zM128 512h-64v64h64v-64z" />
    <glyph glyph-name="question" unicode="?" 
d="M256 0v64h64v-64h-64zM256 128v64v64h64v-64v-64h-64zM64 448v64v64h64v-64v-64h-64zM320 256v64h64v-64h-64zM384 320v64h64v-64h-64zM448 384v64v64v64h64v-64v-64v-64h-64zM448 576h-64v64h64v-64zM128 576v64h64v-64h-64zM384 640h-64h-64h-64v64h64h64h64v-64z" />
    <glyph glyph-name="A" unicode="A" horiz-adv-x="832" 
d="M640 0v64v64h64v-64v-64h-64zM0 0v64v64h64v-64v-64h-64zM640 128h-64v64v64h64v-64v-64zM64 128v64v64h64v-64v-64h-64zM576 256h-64h-64h-64h-64h-64h-64h-64v64v64h64v-64h64h64h64h64h64v64h64v-64v-64zM512 384h-64v64v64h64v-64v-64zM192 384v64v64h64v-64v-64h-64
zM448 512h-64v64v64h64v-64v-64zM256 512v64v64h64v-64v-64h-64zM320 640v64h64v-64h-64z" />
    <glyph glyph-name="B" unicode="B" horiz-adv-x="704" 
d="M384 64h64v-64h-64h-64h-64h-64h-64v64h64h64h64h64zM448 64v64h64v-64h-64zM128 64h-64v64v64v64v64v64v64v64v64v64h64v-64v-64v-64h64h64h64h64h64v-64h64v-64h64v-64v-64v-64h-64v64v64v64h-64v64h-64h-64h-64h-64h-64v-64v-64v-64v-64v-64zM448 448v64v64h64v-64
v-64h-64zM448 576h-64v64h64v-64zM384 640h-64h-64h-64h-64v64h64h64h64h64v-64z" />
    <glyph glyph-name="C" unicode="C" horiz-adv-x="832" 
d="M640 512v64h64v-64h-64zM512 64h64v-64h-64h-64h-64h-64h-64v64h64h64h64h64zM576 64v64h64v-64h-64zM256 64h-64v64h64v-64zM640 128v64h64v-64h-64zM192 128h-64v64v64h64v-64v-64zM128 256h-64v64v64v64h64v-64v-64v-64zM128 448v64v64h64v-64v-64h-64zM640 576h-64
v64h64v-64zM192 576v64h64v-64h-64zM576 640h-64h-64h-64h-64h-64v64h64h64h64h64h64v-64z" />
    <glyph glyph-name="D" unicode="D" horiz-adv-x="768" 
d="M384 64h64v-64h-64h-64h-64h-64h-64v64h64h64h64h64zM448 64v64h64v-64h-64zM128 64h-64v64v64v64v64v64v64v64v64v64h64v-64v-64v-64v-64v-64v-64v-64v-64v-64zM512 128v64v64h64v-64v-64h-64zM576 256v64v64v64h64v-64v-64v-64h-64zM576 448h-64v64v64h64v-64v-64z
M512 576h-64v64h64v-64zM448 640h-64h-64h-64h-64h-64v64h64h64h64h64h64v-64z" />
    <glyph glyph-name="E" unicode="E" 
d="M448 576v64h64v-64h-64zM384 64h64v-64h-64h-64h-64h-64h-64v64h64h64h64h64zM448 64v64h64v-64h-64zM128 64h-64v64v64v64v64v64v64v64v64v64h64v-64v-64v-64v-64h64h64h64h64h64v-64h-64h-64h-64h-64h-64v-64v-64v-64v-64zM448 640h-64h-64h-64h-64h-64v64h64h64h64h64
h64v-64z" />
    <glyph glyph-name="F" unicode="F" 
d="M64 0v64v64v64v64v64v64v64v64v64v64h64v-64v-64v-64v-64h64h64h64h64h64v-64h-64h-64h-64h-64h-64v-64v-64v-64v-64v-64h-64zM448 576v64h64v-64h-64zM448 640h-64h-64h-64h-64h-64v64h64h64h64h64h64v-64z" />
    <glyph glyph-name="G" unicode="G" horiz-adv-x="832" 
d="M640 512v64h64v-64h-64zM512 64h64v-64h-64h-64h-64h-64h-64v64h64h64h64h64zM576 64v64h64v-64h-64zM256 64h-64v64h64v-64zM640 128v64v64v64h64v-64v-64v-64h-64zM192 128h-64v64v64h64v-64v-64zM128 256h-64v64v64v64h64v-64v-64v-64zM640 320h-64h-64h-64h-64v64h64
h64h64h64v-64zM128 448v64v64h64v-64v-64h-64zM640 576h-64v64h64v-64zM192 576v64h64v-64h-64zM576 640h-64h-64h-64h-64h-64v64h64h64h64h64h64v-64z" />
    <glyph glyph-name="H" unicode="H" horiz-adv-x="704" 
d="M512 0v64v64v64v64v64h-64h-64h-64h-64h-64h-64v-64v-64v-64v-64v-64h-64v64v64v64v64v64v64v64v64v64v64v64h64v-64v-64v-64v-64v-64h64h64h64h64h64h64v64v64v64v64v64h64v-64v-64v-64v-64v-64v-64v-64v-64v-64v-64v-64h-64z" />
    <glyph glyph-name="I" unicode="I" horiz-adv-x="384" 
d="M192 0h-64h-64v64h64v64v64v64v64v64v64v64v64v64h-64v64h64h64h64v-64h-64v-64v-64v-64v-64v-64v-64v-64v-64v-64h64v-64h-64z" />
    <glyph glyph-name="J" unicode="J" horiz-adv-x="576" 
d="M192 64h64v-64h-64h-64v64h64zM256 64v64h64v-64h-64zM128 64h-64v64h64v-64zM320 128v64v64v64v64v64v64v64v64h-64v64h64h64h64v-64h-64v-64v-64v-64v-64v-64v-64v-64v-64h-64zM64 128h-64v64h64v-64z" />
    <glyph glyph-name="K" unicode="K" horiz-adv-x="768" 
d="M576 0v64v64h64v-64v-64h-64zM64 0v64v64v64v64v64v64v64v64v64v64v64h64v-64v-64v-64v-64v-64v-64h64v-64h-64v-64v-64v-64v-64h-64zM576 128h-64v64h64v-64zM512 192h-64v64h64v-64zM448 256h-64v64h64v-64zM384 320h-64v64h64v-64zM192 320v64h64v-64h-64zM256 384v64
h64v-64h-64zM320 448v64h64v-64h-64zM384 512v64h64v-64h-64zM448 576v64h64v-64h-64zM512 640v64h64v-64h-64z" />
    <glyph glyph-name="L" unicode="L" 
d="M448 64h64v-64h-64h-64h-64h-64h-64h-64v64h64h64h64h64h64zM128 64h-64v64v64v64v64v64v64v64v64v64v64h64v-64v-64v-64v-64v-64v-64v-64v-64v-64v-64z" />
    <glyph glyph-name="M" unicode="M" horiz-adv-x="896" 
d="M704 0v64v64v64v64v64v64v64v64v64v64h64v-64v-64v-64v-64v-64v-64v-64v-64v-64v-64h-64zM64 0v64v64v64v64v64v64v64v64v64v64h64v-64v-64v-64v-64v-64v-64v-64v-64v-64v-64h-64zM384 128v64v64h64v-64v-64h-64zM448 256v64v64h64v-64v-64h-64zM384 256h-64v64v64h64
v-64v-64zM512 384v64v64h64v-64v-64h-64zM320 384h-64v64v64h64v-64v-64zM576 512v64v64h64v-64v-64h-64zM256 512h-64v64v64h64v-64v-64zM640 640v64h64v-64h-64zM128 640v64h64v-64h-64z" />
    <glyph glyph-name="N" unicode="N" horiz-adv-x="768" 
d="M64 0v64v64v64v64v64v64v64v64v64v64h64v-64v-64v-64v-64v-64v-64v-64v-64v-64v-64h-64zM576 0h-64v64h64v64v64v64v64v64v64v64v64v64v64h64v-64v-64v-64v-64v-64v-64v-64v-64v-64v-64v-64h-64zM512 64h-64v64h64v-64zM448 128h-64v64v64h64v-64v-64zM384 256h-64v64v64
h64v-64v-64zM320 384h-64v64v64h64v-64v-64zM256 512h-64v64v64h64v-64v-64zM128 640v64h64v-64h-64z" />
    <glyph glyph-name="O" unicode="O" horiz-adv-x="896" 
d="M512 64h64v-64h-64h-64h-64h-64h-64v64h64h64h64h64zM576 64v64h64v-64h-64zM256 64h-64v64h64v-64zM640 128v64v64h64v-64v-64h-64zM192 128h-64v64v64h64v-64v-64zM704 256v64v64v64h64v-64v-64v-64h-64zM128 256h-64v64v64v64h64v-64v-64v-64zM704 448h-64v64v64h64
v-64v-64zM128 448v64v64h64v-64v-64h-64zM640 576h-64v64h64v-64zM192 576v64h64v-64h-64zM576 640h-64h-64h-64h-64h-64v64h64h64h64h64h64v-64z" />
    <glyph glyph-name="P" unicode="P" horiz-adv-x="704" 
d="M64 0v64v64v64v64v64v64v64v64v64v64h64v-64v-64v-64v-64v-64h64h64h64h64h64v-64h-64h-64h-64h-64h-64v-64v-64v-64v-64h-64zM448 320v64h64v-64h-64zM512 384v64v64v64h64v-64v-64v-64h-64zM512 576h-64v64h64v-64zM448 640h-64h-64h-64h-64h-64v64h64h64h64h64h64v-64
z" />
    <glyph glyph-name="Q" unicode="Q" horiz-adv-x="960" 
d="M704 64h64v-64h-64h-64v64h64zM448 64h64v-64h-64h-64h-64h-64v64h64h64h64zM768 64v64h64v-64h-64zM640 64h-64h-64v64h64h64v-64zM256 64h-64v64h64v-64zM640 128v64v64h64v-64v-64h-64zM512 128h-64v64h64v-64zM192 128h-64v64v64h64v-64v-64zM448 192h-64v64h64v-64z
M704 256v64v64v64h64v-64v-64v-64h-64zM128 256h-64v64v64v64h64v-64v-64v-64zM704 448h-64v64v64h64v-64v-64zM128 448v64v64h64v-64v-64h-64zM640 576h-64v64h64v-64zM192 576v64h64v-64h-64zM576 640h-64h-64h-64h-64h-64v64h64h64h64h64h64v-64z" />
    <glyph glyph-name="R" unicode="R" horiz-adv-x="768" 
d="M576 0v64v64v64v64h64v-64v-64v-64v-64h-64zM64 0v64v64v64v64v64v64v64v64v64v64h64v-64v-64v-64v-64h64h64h64h64h64h64v-64h64v-64h-64v64h-64h-64h-64h-64h-64h-64v-64v-64v-64v-64v-64h-64zM512 384v64h64v-64h-64zM576 448v64v64h64v-64v-64h-64zM576 576h-64v64
h64v-64zM512 640h-64h-64h-64h-64h-64h-64v64h64h64h64h64h64h64v-64z" />
    <glyph glyph-name="S" unicode="S" horiz-adv-x="768" 
d="M576 512v64h64v-64h-64zM448 64h64v-64h-64h-64h-64h-64v64h64h64h64zM512 64v64h64v-64h-64zM256 64h-64v64h64v-64zM576 128v64v64h64v-64v-64h-64zM192 128h-64v64h64v-64zM576 256h-64v64h64v-64zM512 320h-64h-64h-64v64h64h64h64v-64zM320 384h-64h-64v64h64h64
v-64zM192 448h-64v64v64h64v-64v-64zM576 576h-64v64h64v-64zM192 576v64h64v-64h-64zM512 640h-64h-64h-64h-64v64h64h64h64h64v-64z" />
    <glyph glyph-name="T" unicode="T" horiz-adv-x="704" 
d="M256 0v64v64v64v64v64v64v64v64v64v64h-64h-64h-64h-64v64h64h64h64h64h64h64h64h64h64v-64h-64h-64h-64h-64v-64v-64v-64v-64v-64v-64v-64v-64v-64v-64h-64z" />
    <glyph glyph-name="U" unicode="U" horiz-adv-x="768" 
d="M384 64h64v-64h-64h-64h-64v64h64h64zM448 64v64h64v-64h-64zM256 64h-64v64h64v-64zM512 128v64v64h64v-64v-64h-64zM192 128h-64v64v64h64v-64v-64zM576 256v64v64v64v64v64v64v64h64v-64v-64v-64v-64v-64v-64v-64h-64zM128 256h-64v64v64v64v64v64v64v64h64v-64v-64
v-64v-64v-64v-64v-64z" />
    <glyph glyph-name="V" unicode="V" horiz-adv-x="832" 
d="M320 0v64h64v-64h-64zM384 64v64v64h64v-64v-64h-64zM320 64h-64v64v64h64v-64v-64zM448 192v64v64h64v-64v-64h-64zM256 192h-64v64v64h64v-64v-64zM512 320v64v64h64v-64v-64h-64zM192 320h-64v64v64h64v-64v-64zM576 448v64v64h64v-64v-64h-64zM128 448h-64v64v64h64
v-64v-64zM640 576v64v64h64v-64v-64h-64zM64 576h-64v64v64h64v-64v-64z" />
    <glyph glyph-name="W" unicode="W" horiz-adv-x="960" 
d="M640 64h64v-64h-64h-64h-64v64h64h64zM256 64h64v-64h-64h-64h-64v64h64h64zM704 64v64h64v-64h-64zM512 64h-64v64h64v-64zM320 64v64h64v-64h-64zM128 64h-64v64h64v-64zM768 128v64v64v64v64v64v64h64v-64v-64v-64v-64v-64v-64h-64zM384 128v64v64v64v64v64v64h64v-64
v-64v-64v-64v-64v-64h-64zM64 128h-64v64v64v64v64v64v64h64v-64v-64v-64v-64v-64v-64zM768 512h-64v64v64h64v-64v-64zM64 512v64v64h64v-64v-64h-64zM704 640h-64v64h64v-64zM128 640v64h64v-64h-64z" />
    <glyph glyph-name="X" unicode="X" horiz-adv-x="704" 
d="M512 0h-64h-64v64h64v64h64v-64h64v-64h-64zM128 0h-64h-64v64h64v64h64v-64h64v-64h-64zM448 128h-64v64v64h64v-64v-64zM128 128v64v64h64v-64v-64h-64zM384 256h-64v64h64v-64zM192 256v64h64v-64h-64zM256 320v64h64v-64h-64zM320 384v64h64v-64h-64zM256 384h-64v64
h64v-64zM384 448v64v64h64v-64v-64h-64zM192 448h-64v64v64h64v-64v-64zM448 576v64v64h64h64v-64h-64v-64h-64zM128 576h-64v64h-64v64h64h64h64v-64h-64v-64z" />
    <glyph glyph-name="Y" unicode="Y" horiz-adv-x="768" 
d="M320 0v64v64v64v64v64v64h64v-64v-64v-64v-64v-64v-64h-64zM384 384v64h64v-64h-64zM320 384h-64v64h64v-64zM448 448v64h64v-64h-64zM256 448h-64v64h64v-64zM512 512v64h64v-64h-64zM192 512h-64v64h64v-64zM576 576v64v64h64v-64v-64h-64zM128 576h-64v64v64h64v-64
v-64z" />
    <glyph glyph-name="Z" unicode="Z" horiz-adv-x="704" 
d="M64 576v64h64v-64h-64zM448 64h64v-64h-64h-64h-64h-64h-64h-64h-64v64v64h64v-64h64h64h64h64h64zM512 64v64h64v-64h-64zM128 128v64h64v-64h-64zM192 192v64h64v-64h-64zM256 256v64h64v-64h-64zM320 320v64h64v-64h-64zM384 384v64h64v-64h-64zM448 448v64h64v-64
h-64zM512 512v64v64h64v-64v-64h-64zM512 640h-64h-64h-64h-64h-64h-64v64h64h64h64h64h64h64v-64z" />
    <glyph glyph-name="asciicircum" unicode="^" horiz-adv-x="512" 
d="M320 384v64h64v-64h-64zM64 384v64h64v-64h-64zM320 448h-64v64h64v-64zM128 448v64h64v-64h-64zM192 512v64h64v-64h-64z" />
    <glyph glyph-name="underscore" unicode="_" horiz-adv-x="1024" 
d="M832 -128h64v-64h-64h-64h-64h-64h-64h-64h-64h-64h-64h-64h-64h-64h-64h-64h-64h-64v64h64h64h64h64h64h64h64h64h64h64h64h64h64h64h64z" />
    <glyph glyph-name="a" unicode="a" 
d="M448 0v64h64v-64h-64zM64 320v64h64v-64h-64zM320 64h64v-64h-64h-64h-64h-64v64h64h64h64zM384 64v64v64h64v-64v-64h-64zM128 64h-64v64v64h64v-64v-64zM384 192h-64h-64h-64h-64v64h64h64h64h64v-64zM384 256v64v64h64v-64v-64h-64zM384 384h-64h-64h-64h-64v64h64h64
h64h64v-64z" />
    <glyph glyph-name="b" unicode="b" 
d="M64 0v64v64v64v64v64v64v64v64v64v64v64h64v-64v-64v-64v-64v-64h64v-64h-64v-64v-64v-64h64v-64h64h64h64v-64h-64h-64h-64v64h-64v-64h-64zM384 64v64h64v-64h-64zM448 128v64v64v64h64v-64v-64v-64h-64zM448 320h-64v64h64v-64zM384 384h-64h-64h-64v64h64h64h64v-64z
" />
    <glyph glyph-name="c" unicode="c" horiz-adv-x="576" 
d="M384 320v64h64v-64h-64zM320 64h64v-64h-64h-64h-64v64h64h64zM384 64v64h64v-64h-64zM192 64h-64v64h64v-64zM128 128h-64v64v64v64h64v-64v-64v-64zM128 320v64h64v-64h-64zM384 384h-64h-64h-64v64h64h64h64v-64z" />
    <glyph glyph-name="d" unicode="d" 
d="M448 0v64h-64v-64h-64h-64h-64v64h64h64h64v64h64v64v64v64h-64v64h64v64v64v64v64v64h64v-64v-64v-64v-64v-64v-64v-64v-64v-64v-64v-64h-64zM192 64h-64v64h64v-64zM128 128h-64v64v64v64h64v-64v-64v-64zM128 320v64h64v-64h-64zM384 384h-64h-64h-64v64h64h64h64v-64
z" />
    <glyph glyph-name="e" unicode="e" horiz-adv-x="576" 
d="M320 64h64v-64h-64h-64h-64v64h64h64zM384 64v64h64v-64h-64zM192 64h-64v64h64v-64zM128 128h-64v64v64v64h64v-64h64h64h64h64v-64h-64h-64h-64h-64v-64zM384 256v64v64h64v-64v-64h-64zM128 320v64h64v-64h-64zM384 384h-64h-64h-64v64h64h64h64v-64z" />
    <glyph glyph-name="f" unicode="f" horiz-adv-x="576" 
d="M192 0v64v64v64v64v64v64h-64v64h64v64v64v64h64v-64v-64v-64h64h64v-64h-64h-64v-64v-64v-64v-64v-64v-64h-64zM384 576v64h64v-64h-64zM384 640h-64h-64v64h64h64v-64z" />
    <glyph glyph-name="g" unicode="g" 
d="M320 -128h64v-64h-64h-64h-64h-64v64h64h64h64zM384 -128v64h64v-64h-64zM128 -128h-64v64h64v-64zM448 -64v64v64h-64v-64h-64h-64h-64v-64h-64v64h64v64h64h64h64v64h64v64v64v64h64v-64v-64v-64v-64v-64v-64h-64zM192 64h-64v64h64v-64zM128 128h-64v64v64v64h64v-64
v-64v-64zM448 320h-64v64h64v-64zM128 320v64h64v-64h-64zM448 384v64h64v-64h-64zM384 384h-64h-64h-64v64h64h64h64v-64z" />
    <glyph glyph-name="h" unicode="h" horiz-adv-x="576" 
d="M384 0v64v64v64v64v64h64v-64v-64v-64v-64v-64h-64zM64 0v64v64v64v64v64v64v64v64v64v64v64h64v-64v-64v-64v-64v-64h64v-64h-64v-64v-64v-64v-64v-64h-64zM384 320h-64v64h64v-64zM320 384h-64h-64v64h64h64v-64z" />
    <glyph glyph-name="i" unicode="i" horiz-adv-x="256" 
d="M64 0v64v64v64v64v64v64v64h64v-64v-64v-64v-64v-64v-64v-64h-64zM64 512v64h64v-64h-64z" />
    <glyph glyph-name="j" unicode="j" horiz-adv-x="320" 
d="M128 512v64h64v-64h-64zM64 -128h64v-64h-64h-64v64h64zM128 -128v64v64v64v64v64v64v64v64v64h64v-64v-64v-64v-64v-64v-64v-64v-64v-64h-64zM0 -128h-64v64h64v-64z" />
    <glyph glyph-name="k" unicode="k" horiz-adv-x="512" 
d="M320 0v64v64h64v-64v-64h-64zM64 0v64v64v64v64v64v64v64v64v64v64v64h64v-64v-64v-64v-64v-64v-64h64h64v-64v-64h64v-64h-64v64h-64v64h-64v-64v-64v-64v-64h-64zM256 320v64h64v-64h-64zM320 384v64h64v-64h-64z" />
    <glyph glyph-name="l" unicode="l" horiz-adv-x="320" 
d="M128 0v64h64v-64h-64zM128 64h-64v64v64v64v64v64v64v64v64v64v64h64v-64v-64v-64v-64v-64v-64v-64v-64v-64v-64z" />
    <glyph glyph-name="m" unicode="m" horiz-adv-x="768" 
d="M576 0v64v64v64v64v64h64v-64v-64v-64v-64v-64h-64zM320 0v64v64v64v64v64v64h64v-64v-64v-64v-64v-64v-64h-64zM64 0v64v64v64v64v64v64v64h64v-64h64v-64h-64v-64v-64v-64v-64v-64h-64zM576 320h-64v64h64v-64zM512 384h-64h-64v64h64h64v-64zM320 384h-64h-64v64h64
h64v-64z" />
    <glyph glyph-name="n" unicode="n" horiz-adv-x="576" 
d="M384 0v64v64v64v64v64v64h64v-64v-64v-64v-64v-64v-64h-64zM64 0v64v64v64v64v64v64v64h64v-64h64v-64h-64v-64v-64v-64v-64v-64h-64zM384 384h-64h-64h-64v64h64h64h64v-64z" />
    <glyph glyph-name="o" unicode="o" 
d="M320 64h64v-64h-64h-64h-64v64h64h64zM384 64v64h64v-64h-64zM192 64h-64v64h64v-64zM448 128v64v64v64h64v-64v-64v-64h-64zM128 128h-64v64v64v64h64v-64v-64v-64zM448 320h-64v64h64v-64zM128 320v64h64v-64h-64zM384 384h-64h-64h-64v64h64h64h64v-64z" />
    <glyph glyph-name="p" unicode="p" 
d="M64 -192v64v64v64v64v64v64v64v64h64v-64v-64v-64h64v-64h64h64h64v-64h-64h-64h-64v64h-64v-64v-64v-64v-64h-64zM384 64v64h64v-64h-64zM448 128v64v64v64h64v-64v-64v-64h-64zM448 320h-64v64h64v-64zM128 320v64h64v-64h-64zM384 384h-64h-64h-64v64h64h64h64v-64z
M128 384h-64v64h64v-64z" />
    <glyph glyph-name="q" unicode="q" horiz-adv-x="704" 
d="M512 -192v64h64v-64h-64zM512 -128h-64v64v64v64h-64v-64h-64h-64h-64v64h64h64h64v64h64v64v64v64h64v-64v-64v-64v-64v-64v-64v-64zM192 64h-64v64h64v-64zM128 128h-64v64v64v64h64v-64v-64v-64zM448 320h-64v64h64v-64zM128 320v64h64v-64h-64zM448 384v64h64v-64
h-64zM384 384h-64h-64h-64v64h64h64h64v-64z" />
    <glyph glyph-name="r" unicode="r" horiz-adv-x="576" 
d="M64 0v64v64v64v64v64v64v64h64v-64h64v-64h-64v-64v-64v-64v-64v-64h-64zM384 320v64h64v-64h-64zM384 384h-64h-64h-64v64h64h64h64v-64z" />
    <glyph glyph-name="s" unicode="s" horiz-adv-x="576" 
d="M384 320v64h64v-64h-64zM320 64h64v-64h-64h-64h-64h-64v64h64h64h64zM384 64v64v64h64v-64v-64h-64zM128 64h-64v64h64v-64zM384 192h-64h-64h-64h-64v64h64h64h64h64v-64zM128 256h-64v64v64h64v-64v-64zM384 384h-64h-64h-64h-64v64h64h64h64h64v-64z" />
    <glyph glyph-name="t" unicode="t" horiz-adv-x="448" 
d="M256 64h64v-64h-64h-64v64h64zM192 64h-64v64v64v64v64v64h-64h-64v64h64h64v64v64h64v-64v-64h64h64v-64h-64h-64v-64v-64v-64v-64v-64z" />
    <glyph glyph-name="u" unicode="u" 
d="M448 0v64h-64v-64h-64h-64h-64v64h64h64h64v64h64v64v64v64v64v64h64v-64v-64v-64v-64v-64v-64v-64h-64zM192 64h-64v64h64v-64zM128 128h-64v64v64v64v64v64h64v-64v-64v-64v-64v-64z" />
    <glyph glyph-name="v" unicode="v" 
d="M256 0v64h64v-64h-64zM320 64v64v64h64v-64v-64h-64zM256 64h-64v64v64h64v-64v-64zM384 192v64v64h64v-64v-64h-64zM192 192h-64v64v64h64v-64v-64zM448 320v64v64h64v-64v-64h-64zM128 320h-64v64v64h64v-64v-64z" />
    <glyph glyph-name="w" unicode="w" horiz-adv-x="768" 
d="M448 64h64v-64h-64h-64v64h64zM256 64h64v-64h-64h-64v64h64zM512 64v64h64v-64h-64zM320 64v64v64v64v64h64v-64v-64v-64v-64h-64zM192 64h-64v64h64v-64zM576 128v64v64v64v64h64v-64v-64v-64v-64h-64zM128 128h-64v64v64v64v64h64v-64v-64v-64v-64zM576 384h-64v64h64
v-64zM128 384v64h64v-64h-64z" />
    <glyph glyph-name="x" unicode="x" horiz-adv-x="512" 
d="M320 0v64v64h64v-64v-64h-64zM64 0v64v64h64v-64v-64h-64zM320 128h-64v64h64v-64zM128 128v64h64v-64h-64zM192 192v64h64v-64h-64zM256 256v64h64v-64h-64zM192 256h-64v64h64v-64zM320 320v64v64h64v-64v-64h-64zM128 320h-64v64v64h64v-64v-64z" />
    <glyph glyph-name="y" unicode="y" 
d="M192 -64h64v-64h-64h-64v64h64zM256 -64v64h64v-64h-64zM128 -64h-64v64h64v-64zM320 0v64h64v-64h-64zM384 64v64h-64h-64v64h64h64v64h64v-64v-64v-64h-64zM256 192h-64v64h64v-64zM448 256v64v64v64h64v-64v-64v-64h-64zM192 256h-64v64h64v-64zM128 320h-64v64v64h64
v-64v-64z" />
    <glyph glyph-name="z" unicode="z" horiz-adv-x="576" 
d="M384 64h64v-64h-64h-64h-64h-64h-64h-64v64v64h64v-64h64h64h64h64zM128 128v64h64v-64h-64zM192 192v64h64v-64h-64zM256 256v64h64v-64h-64zM320 320v64h-64h-64h-64h-64v64h64h64h64h64h64h64v-64h-64v-64h-64z" />
    <glyph glyph-name="asciitilde" unicode="~" 
d="M64 192v64h64v-64h-64zM384 256h64v-64h-64h-64h-64v64h64h64zM448 256v64h64v-64h-64zM256 256h-64h-64v64h64h64v-64z" />
    <glyph glyph-name="uni00A0" unicode="&#xa0;" horiz-adv-x="192" 
 />
    <glyph glyph-name="afii57664" unicode="&#x5d0;" 
d="M448 0v64v64h64v-64v-64h-64zM64 0v64v64v64h64v-64v-64v-64h-64zM448 128h-64v64h64v-64zM384 192h-64v64h64v-64zM128 192v64v64h64v-64v-64h-64zM384 256v64h64v-64h-64zM320 256h-64v64h64v-64zM448 320v64v64v64h64v-64v-64v-64h-64zM192 320v64h64v-64h-64z
M192 384h-64v64h64v-64zM128 448h-64v64h64v-64z" />
    <glyph glyph-name="afii57665" unicode="&#x5d1;" 
d="M448 0h-64h-64h-64h-64h-64h-64v64h64h64h64h64h64v64v64v64v64v64v64h64v-64v-64v-64v-64v-64v-64h64v-64h-64zM384 448h-64h-64h-64h-64h-64v64h64h64h64h64h64v-64z" />
    <glyph glyph-name="afii57666" unicode="&#x5d2;" horiz-adv-x="512" 
d="M320 0v64h64v-64h-64zM64 0v64v64h64v-64v-64h-64zM320 64h-64v64v64h-64v-64h-64v64h64v64h64v64v64v64h64v-64v-64v-64v-64v-64v-64zM256 448h-64h-64h-64v64h64h64h64v-64z" />
    <glyph glyph-name="afii57667" unicode="&#x5d3;" horiz-adv-x="576" 
d="M320 0v64v64v64v64v64v64v64h-64h-64h-64h-64v64h64h64h64h64h64h64v-64h-64v-64v-64v-64v-64v-64v-64v-64h-64z" />
    <glyph glyph-name="afii57668" unicode="&#x5d4;" 
d="M448 0v64v64v64v64v64v64h64v-64v-64v-64v-64v-64v-64h-64zM128 0v64v64v64v64h64v-64v-64v-64v-64h-64zM128 256h-64v64h64v-64zM448 384h-64v64h64v-64zM384 448h-64h-64h-64h-64h-64v64h64h64h64h64h64v-64z" />
    <glyph glyph-name="afii57669" unicode="&#x5d5;" horiz-adv-x="320" 
d="M128 0v64v64v64v64v64v64v64h64v-64v-64v-64v-64v-64v-64v-64h-64zM128 448h-64v64h64v-64z" />
    <glyph glyph-name="afii57670" unicode="&#x5d6;" horiz-adv-x="512" 
d="M128 0v64v64v64v64h64v-64v-64v-64v-64h-64zM128 256h-64v64v64h64v-64v-64zM128 384v64h-64h-64v64h64h64h64h64h64h64v-64h-64h-64h-64v-64h-64z" />
    <glyph glyph-name="afii57671" unicode="&#x5d7;" 
d="M448 0v64v64v64v64v64v64h64v-64v-64v-64v-64v-64v-64h-64zM64 0v64v64v64v64v64v64v64v64h64h64h64h64h64v-64h64v-64h-64v64h-64h-64h-64h-64v-64v-64v-64v-64v-64v-64v-64h-64z" />
    <glyph glyph-name="afii57672" unicode="&#x5d8;" 
d="M256 384v64h64v-64h-64zM320 64h64v-64h-64h-64h-64v64h64h64zM384 64v64h64v-64h-64zM192 64h-64v64h64v-64zM448 128v64v64v64v64v64h64v-64v-64v-64v-64v-64h-64zM128 128h-64v64v64v64v64v64v64h64v-64v-64v-64v-64v-64v-64zM448 448h-64h-64v64h64h64v-64z" />
    <glyph glyph-name="afii57673" unicode="&#x5d9;" horiz-adv-x="320" 
d="M128 320v64v64h64v-64v-64h-64zM128 448h-64v64h64v-64z" />
    <glyph glyph-name="afii57674" unicode="&#x5da;" horiz-adv-x="576" 
d="M384 -192v64v64v64v64v64v64v64v64v64h64v-64v-64v-64v-64v-64v-64v-64v-64v-64h-64zM384 384h-64v64h64v-64zM320 448h-64h-64h-64h-64v64h64h64h64h64v-64z" />
    <glyph glyph-name="afii57675" unicode="&#x5db;" horiz-adv-x="576" 
d="M64 384v64h64v-64h-64zM256 64h64v-64h-64h-64h-64v64h64h64zM320 64v64h64v-64h-64zM128 64h-64v64h64v-64zM384 128v64v64v64v64h64v-64v-64v-64v-64h-64zM384 384h-64v64h64v-64zM320 448h-64h-64h-64v64h64h64h64v-64z" />
    <glyph glyph-name="afii57676" unicode="&#x5dc;" horiz-adv-x="512" 
d="M192 0v64v64v64h64v-64v-64v-64h-64zM256 192v64h64v-64h-64zM320 256v64v64v64h64v-64v-64v-64h-64zM320 448h-64h-64h-64h-64v64v64v64v64h64v-64v-64v-64h64h64h64v-64z" />
    <glyph glyph-name="afii57677" unicode="&#x5dd;" 
d="M384 64h64v-64h-64h-64h-64h-64h-64v64h64h64h64h64zM448 64v64v64v64v64v64h64v-64v-64v-64v-64v-64h-64zM128 64h-64v64v64v64v64v64v64h64v-64v-64v-64v-64v-64v-64zM448 384h-64v64h64v-64zM384 448h-64h-64h-64h-64v64h64h64h64h64v-64z" />
    <glyph glyph-name="afii57678" unicode="&#x5de;" 
d="M64 0v64v64v64v64h64v-64v-64v-64v-64h-64zM384 64h64v-64h-64h-64h-64v64h64h64zM448 64v64v64v64v64v64h64v-64v-64v-64v-64v-64h-64zM128 256v64v64h64v-64v-64h-64zM448 384h-64v64h64v-64zM192 384v64h64v-64h-64zM128 384h-64v64v64h64v-64v-64zM384 448h-64h-64
v64h64h64v-64z" />
    <glyph glyph-name="afii57679" unicode="&#x5df;" horiz-adv-x="320" 
d="M128 -192v64v64v64v64v64v64v64v64v64v64h64v-64v-64v-64v-64v-64v-64v-64v-64v-64v-64h-64zM128 448h-64v64h64v-64z" />
    <glyph glyph-name="afii57680" unicode="&#x5e0;" horiz-adv-x="384" 
d="M192 0h-64h-64v64h64h64v64v64v64v64v64v64h64v-64v-64v-64v-64v-64v-64v-64h-64zM192 448h-64h-64v64h64h64v-64z" />
    <glyph glyph-name="afii57681" unicode="&#x5e1;" 
d="M320 64h64v-64h-64h-64h-64v64h64h64zM384 64v64h64v-64h-64zM192 64h-64v64h64v-64zM448 128v64v64v64v64h64v-64v-64v-64v-64h-64zM128 128h-64v64v64v64v64h64v-64v-64v-64v-64zM448 384h-64v64h64v-64zM128 384v64h64v-64h-64zM384 448h-64h-64h-64v64h64h64h64v-64z
" />
    <glyph glyph-name="afii57682" unicode="&#x5e2;" 
d="M320 0h-64h-64h-64h-64v64h64h64h64v64h64v-64h64v-64h-64zM384 64v64h64v-64h-64zM448 128v64v64v64v64v64v64h64v-64v-64v-64v-64v-64v-64h-64zM256 128h-64v64v64h64v-64v-64zM192 256h-64v64v64h64v-64v-64zM128 384h-64v64v64h64v-64v-64z" />
    <glyph glyph-name="afii57683" unicode="&#x5e3;" 
d="M448 -192v64v64v64v64v64v64v64v64v64h64v-64v-64v-64v-64v-64v-64v-64v-64v-64h-64zM192 256h64v-64h-64h-64v64h64zM128 256h-64v64v64v64h64v-64v-64v-64zM448 384h-64v64h64v-64zM384 448h-64h-64h-64h-64v64h64h64h64h64v-64z" />
    <glyph glyph-name="afii57684" unicode="&#x5e4;" horiz-adv-x="704" 
d="M384 64h64v-64h-64h-64h-64h-64h-64v64h64h64h64h64zM448 64v64h64v-64h-64zM128 64h-64v64h64v-64zM512 128v64v64v64v64h64v-64v-64v-64v-64h-64zM256 256h64v-64h-64h-64v64h64zM320 256v64h64v-64h-64zM192 256h-64v64v64v64h64v-64v-64v-64zM512 384h-64v64h64v-64z
M448 448h-64h-64h-64h-64v64h64h64h64h64v-64z" />
    <glyph glyph-name="afii57685" unicode="&#x5e5;" horiz-adv-x="576" 
d="M256 -192v64v64v64v64v64v64v64v64h64h64v-64h-64v-64v-64v-64v-64v-64v-64v-64h-64zM384 320v64v64v64h64v-64v-64v-64h-64zM256 320h-64v64h64v-64zM192 384h-64v64h64v-64zM128 448h-64v64h64v-64z" />
    <glyph glyph-name="afii57686" unicode="&#x5e6;" horiz-adv-x="576" 
d="M384 0h-64h-64h-64h-64h-64v64h64h64h64h64h64v64v64h64v-64v-64v-64h-64zM384 192h-64v64h64v-64zM320 256h-64v64h64v-64zM320 320v64h64v-64h-64zM256 320h-64v64h64v-64zM384 384v64v64h64v-64v-64h-64zM192 384h-64v64h64v-64zM128 448h-64v64h64v-64z" />
    <glyph glyph-name="afii57687" unicode="&#x5e7;" 
d="M128 -192v64v64v64v64v64v64v64h64v-64v-64v-64v-64v-64v-64v-64h-64zM320 0v64v64v64v64h64v-64v-64v-64v-64h-64zM384 256v64h64v-64h-64zM128 256h-64v64h64v-64zM448 320v64v64h64v-64v-64h-64zM448 448h-64h-64h-64h-64h-64h-64v64h64h64h64h64h64h64v-64z" />
    <glyph glyph-name="afii57688" unicode="&#x5e8;" horiz-adv-x="576" 
d="M384 0v64v64v64v64v64v64h64v-64v-64v-64v-64v-64v-64h-64zM384 384h-64v64h64v-64zM320 448h-64h-64h-64h-64v64h64h64h64h64v-64z" />
    <glyph glyph-name="afii57689" unicode="&#x5e9;" horiz-adv-x="768" 
d="M448 64h64v-64h-64h-64h-64h-64h-64v64h64h64h64h64zM512 64v64h64v-64h-64zM192 64h-64v64h64v-64zM576 128v64v64v64v64v64v64h64v-64v-64v-64v-64v-64v-64h-64zM128 128h-64v64v64v64v64v64v64h64v-64v-64v-64v-64h64h64v-64h-64h-64v-64zM256 256v64h64v-64h-64z
M320 320v64v64v64h64v-64v-64v-64h-64z" />
    <glyph glyph-name="afii57690" unicode="&#x5ea;" horiz-adv-x="704" 
d="M512 0v64v64v64v64v64v64h64v-64v-64v-64v-64v-64v-64h-64zM128 64h64v-64h-64h-64v64h64zM192 64v64v64v64v64v64v64h-64h-64v64h64h64h64h64h64h64v-64h64v-64h-64v64h-64h-64h-64v-64v-64v-64v-64v-64v-64h-64z" />
    <glyph glyph-name="uni2606" unicode="&#x2606;" horiz-adv-x="896" 
d="M576 0h-64v64h64v64v64h64v-64v-64v-64h-64zM256 0h-64v64v64v64h64v-64v-64h64v-64h-64zM512 64h-64v64h64v-64zM320 64v64h64v-64h-64zM384 128v64h64v-64h-64zM576 192h-64v64h64v-64zM256 192v64h64v-64h-64zM576 256v64h64v-64h-64zM256 256h-64v64h64v-64zM640 320
v64h-64h-64v64h64h64h64h64v-64h-64v-64h-64zM192 320h-64v64h-64v64h64h64h64h64v-64h-64h-64v-64zM512 448h-64v64h64v-64zM320 448v64h64v-64h-64zM384 512v64v64h64v-64v-64h-64z" />
    <glyph glyph-name="uni2726" unicode="&#x2726;" horiz-adv-x="896" 
d="M576 0h-64v64h-64v64h-64v-64h-64v-64h-64h-64v64v64v64h64v64h-64v64h-64v64h-64v64h64h64h64h64v64h64v64v64h64v-64v-64h64v-64h64h64h64h64v-64h-64v-64h-64v-64h-64v-64h64v-64v-64v-64h-64z" />
    <glyph glyph-name="uni2730" unicode="&#x2730;" horiz-adv-x="896" 
d="M576 0h-64v64h64v64v64h64v-64v-64v-64h-64zM256 0h-64v64v64v64h64v64h-64v64h-64v64h-64v64h64h64h64h64v64h64v64v64h64v-64v-64h64v-64h64h64h64h64v-64h-64v-64h-64v-64h-64v-64h-64v64h64v64h64v64h-64h-64h-64v-64v-64v-64v-64h64v-64h-64v64h-64v-64h-64v-64h-64
z" />
    <glyph glyph-name="uni3000" unicode="&#x3000;" horiz-adv-x="1024" 
 />
    <glyph glyph-name="uniA4A6" unicode="&#xa4a6;" horiz-adv-x="704" 
d="M320 384v64h64v-64h-64zM320 640v64h64v-64h-64zM384 448v64h64v-64h-64zM320 448h-64v64h64v-64zM448 512v64h64v-64h-64zM256 512h-64v64h64v-64zM512 576v64v64h64v-64v-64h-64zM192 576h-64v64v64h64v-64v-64zM512 704h-64h-64v64h64h64v-64zM320 704h-64h-64v64h64
h64v-64z" />
    <glyph glyph-name="uniA4B7" unicode="&#xa4b7;" 
d="M320 448v64h64v-64h-64zM320 640v64h64v-64h-64zM384 512v64h64v-64h-64zM320 512h-64v64h64v-64zM448 576v64v64h64v-64v-64h-64zM256 576h-64v64v64h64v-64v-64zM384 704v64h64v-64h-64zM256 704v64h64v-64h-64z" />
  </font>
</defs>
</svg>
